<svg version="1.1" xmlns="http://www.w3.org/2000/svg" xmlns:xlink="http://www.w3.org/1999/xlink" width="750" height="250" style="width: 750px; height: 250px;"><defs><clipPath id="LTAEnExFGUxV"><path fill="none" stroke="none" d=" M 62 27 L 720 27 L 720 226 L 62 226 L 62 27 Z"/></clipPath><clipPath id="IwQdexLTdfKK"><path fill="none" stroke="none" d=" M 62 27 L 720 27 L 720 226 L 62 226 L 62 27 Z"/></clipPath></defs><g><g transform="scale(1,1) translate(0.5,0.5)"><rect fill="#FFFFFF" stroke="none" x="0" y="0" width="750" height="250"/><rect fill="#ffffff" stroke="none" x="0" y="0" width="750" height="250"/><rect fill="#FFFFFF" stroke="none" x="62" y="27" width="658" height="199"/><rect fill="#ffffff" stroke="none" x="62" y="27" width="658" height="199"/><g><rect fill="none" stroke="#e5e5e5" x="62" y="27" width="658" height="199" stroke-linejoin="bevel" stroke-miterlimit="10"/></g><g clip-path="url(#LTAEnExFGUxV)"><g><g><path fill="none" stroke="#e5e5e5" paint-order="fill stroke markers" d=" M 167 226 L 167 27" stroke-linejoin="bevel" stroke-miterlimit="10"/><path fill="none" stroke="#e5e5e5" paint-order="fill stroke markers" d=" M 274 226 L 274 27" stroke-linejoin="bevel" stroke-miterlimit="10"/><path fill="none" stroke="#e5e5e5" paint-order="fill stroke markers" d=" M 380 226 L 380 27" stroke-linejoin="bevel" stroke-miterlimit="10"/><path fill="none" stroke="#e5e5e5" paint-order="fill stroke markers" d=" M 486 226 L 486 27" stroke-linejoin="bevel" stroke-miterlimit="10"/><path fill="none" stroke="#e5e5e5" paint-order="fill stroke markers" d=" M 593 226 L 593 27" stroke-linejoin="bevel" stroke-miterlimit="10"/><path fill="none" stroke="#e5e5e5" paint-order="fill stroke markers" d=" M 699 226 L 699 27" stroke-linejoin="bevel" stroke-miterlimit="10"/></g><g><path fill="none" stroke="#e5e5e5" paint-order="fill stroke markers" d=" M 62 220 L 720 220" stroke-linejoin="bevel" stroke-miterlimit="10"/><path fill="none" stroke="#e5e5e5" paint-order="fill stroke markers" d=" M 62 193 L 720 193" stroke-linejoin="bevel" stroke-miterlimit="10"/><path fill="none" stroke="#e5e5e5" paint-order="fill stroke markers" d=" M 62 166 L 720 166" stroke-linejoin="bevel" stroke-miterlimit="10"/><path fill="none" stroke="#e5e5e5" paint-order="fill stroke markers" d=" M 62 139 L 720 139" stroke-linejoin="bevel" stroke-miterlimit="10"/><path fill="none" stroke="#e5e5e5" paint-order="fill stroke markers" d=" M 62 111 L 720 111" stroke-linejoin="bevel" stroke-miterlimit="10"/><path fill="none" stroke="#e5e5e5" paint-order="fill stroke markers" d=" M 62 84 L 720 84" stroke-linejoin="bevel" stroke-miterlimit="10"/><path fill="none" stroke="#e5e5e5" paint-order="fill stroke markers" d=" M 62 57 L 720 57" stroke-linejoin="bevel" stroke-miterlimit="10"/><path fill="none" stroke="#e5e5e5" paint-order="fill stroke markers" d=" M 62 30 L 720 30" stroke-linejoin="bevel" stroke-miterlimit="10"/></g><g><path fill="none" stroke="none"/><path fill="none" stroke="Green" paint-order="fill stroke markers" d=" M 91.90909090909099 214.62228135296843 L 96.4220226111197 211.1095571162137 L 100.78937587114751 216.95454545454544 L 105.30230757317622 213.27867350700282 L 109.66966083320449 216.60075138247052 L 114.1825925352332 211.7113039948059 L 118.6955242372619 216.38193014829872 L 122.77172061328793 213.42059802962712 L 127.28465231531663 209.5146619314749 L 131.65200557534445 201.08809459141193 L 136.1649372773736 204.63820171388394 L 140.53229053740142 213.15173083966923 L 145.04522223943013 205.38704427785657 L 149.55815394145884 214.32078168768956 L 153.92550720148665 211.75179934898853 L 158.43843890351582 198.1351252432959 L 162.80579216354363 204.93203666410926 L 167.31872386557234 212.1591810578365 L 171.83165556760105 214.87029866044196 L 175.90785194362707 215.60258929494276 L 180.42078364565577 208.46138224270206 L 184.7881369056836 208.54244316677435 L 189.30106860771275 204.29064117835748 L 193.66842186774056 204.8949552445517 L 198.18135356976927 210.1208512993616 L 202.69428527179798 213.54881212241494 L 207.0616385318258 188.74999983776308 L 211.57457023385496 200.8873505833971 L 215.94192349388277 204.89615212339837 L 220.45485519591148 209.78628470266372 L 224.9677868979402 209.42569708300994 L 229.0439832739662 207.52981308836624 L 233.5569149759949 209.66837241815674 L 237.92426823602318 205.66978933832794 L 242.4371999380519 203.72485429493832 L 246.8045531980797 204.44932149550894 L 251.3174849001084 203.95701645361777 L 255.83041660213712 198.90838559357334 L 260.19776986216493 200.86803560983273 L 264.7107015641941 203.58824597805338 L 269.0780548242219 193.77202537276852 L 273.5909865262506 201.9836219043396 L 278.1039182282793 202.76279896153244 L 282.32569304630624 201.77223455994422 L 286.8386247483354 203.6213809402207 L 291.2059780083632 198.60760248633676 L 295.7189097103919 202.25572833654422 L 300.08626297041974 202.7340422883659 L 304.59919467244845 199.55473257306747 L 309.11212637447716 199.48113952900326 L 313.4794796345054 196.44305501775938 L 317.99241133653413 200.41200767201806 L 322.35976459656194 189.2639854964753 L 326.87269629859065 189.22928036210922 L 331.38562800061936 198.32150009189982 L 335.4618243766454 205.56009978078677 L 339.97475607867455 200.41343623598112 L 344.34210933870236 199.83402277336677 L 348.85504104073107 202.01459921091165 L 353.2223943007589 196.66459490219654 L 357.7353260027876 198.38635178528284 L 362.2482577048163 194.70413621407997 L 366.61561096484456 198.58164559603125 L 371.1285426668733 196.4698310747238 L 375.4958959269011 195.66479845467734 L 380.0088276289298 188.9350753460895 L 384.5217593309585 198.42679586718066 L 388.5979557069845 198.53101126688344 L 393.1108874090137 202.93413922237275 L 397.4782406690415 200.36673948513183 L 401.9911723710702 198.74820995556342 L 406.358525631098 201.96437572575252 L 410.8714573331267 200.7561816495243 L 415.3843890351559 203.42784828109174 L 419.7517422951837 197.2215960954736 L 424.2646739972124 197.71160497064994 L 428.6320272572402 179.47213640909456 L 433.14495895926893 200.32178246037427 L 437.65789066129764 197.54106944194086 L 441.73408703732366 199.40613768310192 L 446.2470187393528 191.2385346776209 L 450.61437199938064 199.49414576141797 L 455.12730370140935 195.7579833239903 L 459.49465696143716 193.14850506985726 L 464.00758866346587 192.24471345000273 L 468.52052036549503 192.5548341898753 L 472.88787362552284 196.21707742475434 L 477.40080532755155 196.39634949856813 L 481.76815858757936 196.62090458759516 L 486.2810902896081 190.43671567324046 L 490.79402199163724 192.63918483140608 L 495.01579680966415 199.433734686613 L 499.52872851169286 195.81239212753883 L 503.8960817717207 194.40040949548313 L 508.4090134737494 196.8631141416906 L 512.7763667337772 194.5165566890911 L 517.2892984358064 194.5749923633602 L 521.8022301378351 162.6396179129273 L 526.1695833978629 191.81787522116838 L 530.6825150998916 192.4704580250828 L 535.0498683599194 184.59790670591474 L 539.5628000619481 187.38318641263314 L 544.0757317639773 189.59022050846616 L 548.1519281400033 188.72108506328325 L 552.664859842032 187.34040669531385 L 557.0322131020598 186.26985086279043 L 561.5451448040885 185.65139485368144 L 565.9124980641163 186.17065214863982 L 570.4254297661455 182.9807314335964 L 574.9383614681742 181.52532079211736 L 579.305714728202 189.53307818499036 L 583.8186464302307 173.43599769510257 L 588.1859996902585 174.19272088067694 L 592.6989313922872 172.19004926583946 L 597.2118630943164 177.9762413527273 L 601.2880594703424 179.67809683842034 L 605.8009911723711 170.4846109175547 L 610.168344432399 173.78716575299427 L 614.6812761344277 172.37747870519112 L 619.0486293944555 178.5291367395417 L 623.5615610964846 182.93388665236398 L 628.0744927985133 175.96410021607514 L 632.4418460585412 177.88679884170455 L 636.9547777605699 174.03050806131787 L 641.3221310205977 174.0183902210296 L 645.8350627226268 167.6439616210898 L 650.3479944246556 174.7080371893092 L 654.4241908006816 171.4338479058563 L 658.9371225027103 168.84444697199814 L 663.3044757627381 165.208657205953 L 667.8174074647668 168.65115077542148 L 672.1847607247946 167.2266783495566 L 676.6976924268238 174.61986050291296 L 681.2106241288525 167.5920618218916 L 685.5779773888803 36.04545454545456 L 690.090909090909 162.38735055871658" stroke-linejoin="bevel" stroke-miterlimit="10" stroke-width="2"/></g></g></g><g clip-path="url(#IwQdexLTdfKK)"><g/></g><g><g fill="#444444"><path fill="none" stroke="black" paint-order="fill stroke markers" d=" M 62 226 L 720 226" stroke-linejoin="bevel" stroke-miterlimit="10"/><path fill="none" stroke="black" paint-order="fill stroke markers" d=" M 167 232 L 167 224" stroke-linejoin="bevel" stroke-miterlimit="10"/><path fill="none" stroke="black" paint-order="fill stroke markers" d=" M 274 232 L 274 224" stroke-linejoin="bevel" stroke-miterlimit="10"/><path fill="none" stroke="black" paint-order="fill stroke markers" d=" M 380 232 L 380 224" stroke-linejoin="bevel" stroke-miterlimit="10"/><path fill="none" stroke="black" paint-order="fill stroke markers" d=" M 486 232 L 486 224" stroke-linejoin="bevel" stroke-miterlimit="10"/><path fill="none" stroke="black" paint-order="fill stroke markers" d=" M 593 232 L 593 224" stroke-linejoin="bevel" stroke-miterlimit="10"/><path fill="" stroke="black" paint-order="fill stroke markers" d=" M 699 232 L 699 224" stroke-linejoin="bevel" stroke-miterlimit="10"/><g transform="translate(167,237) rotate(0,0,0)"><text fill="" stroke="none" font-family="helvetica" font-size="8pt" font-style="normal" font-weight="normal" text-decoration="normal" x="0" y="0" text-anchor="middle" dominant-baseline="hanging">2010</text><g transform="rotate(0,0,0) translate(-167,-237) translate(274,237) rotate(0,0,0)"><text fill="" stroke="none" font-family="helvetica" font-size="8pt" font-style="normal" font-weight="normal" text-decoration="normal" x="0" y="0" text-anchor="middle" dominant-baseline="hanging">2012</text><g transform="rotate(0,0,0) translate(-274,-237) translate(380,237) rotate(0,0,0)"><text fill="" stroke="none" font-family="helvetica" font-size="8pt" font-style="normal" font-weight="normal" text-decoration="normal" x="0" y="0" text-anchor="middle" dominant-baseline="hanging">2014</text><g transform="rotate(0,0,0) translate(-380,-237) translate(486,237) rotate(0,0,0)"><text fill="" stroke="none" font-family="helvetica" font-size="8pt" font-style="normal" font-weight="normal" text-decoration="normal" x="0" y="0" text-anchor="middle" dominant-baseline="hanging">2016</text><g transform="rotate(0,0,0) translate(-486,-237) translate(593,237) rotate(0,0,0)"><text fill="" stroke="none" font-family="helvetica" font-size="8pt" font-style="normal" font-weight="normal" text-decoration="normal" x="0" y="0" text-anchor="middle" dominant-baseline="hanging">2018</text><g transform="rotate(0,0,0) translate(-593,-237) translate(699,237) rotate(0,0,0)"><text fill="" stroke="none" font-family="helvetica" font-size="8pt" font-style="normal" font-weight="normal" text-decoration="normal" x="0" y="0" text-anchor="middle" dominant-baseline="hanging">2020</text><g transform="rotate(0,0,0) translate(-699,-237)"/></g></g></g></g></g></g></g><g fill="#444444"><path fill="none" stroke="black" paint-order="fill stroke markers" d=" M 62 226 L 62 27" stroke-linejoin="bevel" stroke-miterlimit="10"/><path fill="none" stroke="black" paint-order="fill stroke markers" d=" M 56 220 L 64 220" stroke-linejoin="bevel" stroke-miterlimit="10"/><path fill="none" stroke="black" paint-order="fill stroke markers" d=" M 56 193 L 64 193" stroke-linejoin="bevel" stroke-miterlimit="10"/><path fill="none" stroke="black" paint-order="fill stroke markers" d=" M 56 166 L 64 166" stroke-linejoin="bevel" stroke-miterlimit="10"/><path fill="none" stroke="black" paint-order="fill stroke markers" d=" M 56 139 L 64 139" stroke-linejoin="bevel" stroke-miterlimit="10"/><path fill="none" stroke="black" paint-order="fill stroke markers" d=" M 56 111 L 64 111" stroke-linejoin="bevel" stroke-miterlimit="10"/><path fill="none" stroke="black" paint-order="fill stroke markers" d=" M 56 84 L 64 84" stroke-linejoin="bevel" stroke-miterlimit="10"/><path fill="none" stroke="black" paint-order="fill stroke markers" d=" M 56 57 L 64 57" stroke-linejoin="bevel" stroke-miterlimit="10"/><path fill="none" stroke="black" paint-order="fill stroke markers" d=" M 56 30 L 64 30" stroke-linejoin="bevel" stroke-miterlimit="10"/><path fill="none" stroke="black" paint-order="fill stroke markers" d=" M 58 225 L 62 225" stroke-linejoin="bevel" stroke-miterlimit="10"/><path fill="none" stroke="black" paint-order="fill stroke markers" d=" M 58 220 L 62 220" stroke-linejoin="bevel" stroke-miterlimit="10"/><path fill="none" stroke="black" paint-order="fill stroke markers" d=" M 58 215 L 62 215" stroke-linejoin="bevel" stroke-miterlimit="10"/><path fill="none" stroke="black" paint-order="fill stroke markers" d=" M 58 209 L 62 209" stroke-linejoin="bevel" stroke-miterlimit="10"/><path fill="none" stroke="black" paint-order="fill stroke markers" d=" M 58 204 L 62 204" stroke-linejoin="bevel" stroke-miterlimit="10"/><path fill="none" stroke="black" paint-order="fill stroke markers" d=" M 58 198 L 62 198" stroke-linejoin="bevel" stroke-miterlimit="10"/><path fill="none" stroke="black" paint-order="fill stroke markers" d=" M 58 193 L 62 193" stroke-linejoin="bevel" stroke-miterlimit="10"/><path fill="none" stroke="black" paint-order="fill stroke markers" d=" M 58 187 L 62 187" stroke-linejoin="bevel" stroke-miterlimit="10"/><path fill="none" stroke="black" paint-order="fill stroke markers" d=" M 58 182 L 62 182" stroke-linejoin="bevel" stroke-miterlimit="10"/><path fill="none" stroke="black" paint-order="fill stroke markers" d=" M 58 177 L 62 177" stroke-linejoin="bevel" stroke-miterlimit="10"/><path fill="none" stroke="black" paint-order="fill stroke markers" d=" M 58 171 L 62 171" stroke-linejoin="bevel" stroke-miterlimit="10"/><path fill="none" stroke="black" paint-order="fill stroke markers" d=" M 58 166 L 62 166" stroke-linejoin="bevel" stroke-miterlimit="10"/><path fill="none" stroke="black" paint-order="fill stroke markers" d=" M 58 160 L 62 160" stroke-linejoin="bevel" stroke-miterlimit="10"/><path fill="none" stroke="black" paint-order="fill stroke markers" d=" M 58 155 L 62 155" stroke-linejoin="bevel" stroke-miterlimit="10"/><path fill="none" stroke="black" paint-order="fill stroke markers" d=" M 58 149 L 62 149" stroke-linejoin="bevel" stroke-miterlimit="10"/><path fill="none" stroke="black" paint-order="fill stroke markers" d=" M 58 144 L 62 144" stroke-linejoin="bevel" stroke-miterlimit="10"/><path fill="none" stroke="black" paint-order="fill stroke markers" d=" M 58 139 L 62 139" stroke-linejoin="bevel" stroke-miterlimit="10"/><path fill="none" stroke="black" paint-order="fill stroke markers" d=" M 58 133 L 62 133" stroke-linejoin="bevel" stroke-miterlimit="10"/><path fill="none" stroke="black" paint-order="fill stroke markers" d=" M 58 128 L 62 128" stroke-linejoin="bevel" stroke-miterlimit="10"/><path fill="none" stroke="black" paint-order="fill stroke markers" d=" M 58 122 L 62 122" stroke-linejoin="bevel" stroke-miterlimit="10"/><path fill="none" stroke="black" paint-order="fill stroke markers" d=" M 58 117 L 62 117" stroke-linejoin="bevel" stroke-miterlimit="10"/><path fill="none" stroke="black" paint-order="fill stroke markers" d=" M 58 111 L 62 111" stroke-linejoin="bevel" stroke-miterlimit="10"/><path fill="none" stroke="black" paint-order="fill stroke markers" d=" M 58 106 L 62 106" stroke-linejoin="bevel" stroke-miterlimit="10"/><path fill="none" stroke="black" paint-order="fill stroke markers" d=" M 58 101 L 62 101" stroke-linejoin="bevel" stroke-miterlimit="10"/><path fill="none" stroke="black" paint-order="fill stroke markers" d=" M 58 95 L 62 95" stroke-linejoin="bevel" stroke-miterlimit="10"/><path fill="none" stroke="black" paint-order="fill stroke markers" d=" M 58 90 L 62 90" stroke-linejoin="bevel" stroke-miterlimit="10"/><path fill="none" stroke="black" paint-order="fill stroke markers" d=" M 58 84 L 62 84" stroke-linejoin="bevel" stroke-miterlimit="10"/><path fill="none" stroke="black" paint-order="fill stroke markers" d=" M 58 79 L 62 79" stroke-linejoin="bevel" stroke-miterlimit="10"/><path fill="none" stroke="black" paint-order="fill stroke markers" d=" M 58 73 L 62 73" stroke-linejoin="bevel" stroke-miterlimit="10"/><path fill="none" stroke="black" paint-order="fill stroke markers" d=" M 58 68 L 62 68" stroke-linejoin="bevel" stroke-miterlimit="10"/><path fill="none" stroke="black" paint-order="fill stroke markers" d=" M 58 63 L 62 63" stroke-linejoin="bevel" stroke-miterlimit="10"/><path fill="none" stroke="black" paint-order="fill stroke markers" d=" M 58 57 L 62 57" stroke-linejoin="bevel" stroke-miterlimit="10"/><path fill="none" stroke="black" paint-order="fill stroke markers" d=" M 58 52 L 62 52" stroke-linejoin="bevel" stroke-miterlimit="10"/><path fill="none" stroke="black" paint-order="fill stroke markers" d=" M 58 46 L 62 46" stroke-linejoin="bevel" stroke-miterlimit="10"/><path fill="none" stroke="black" paint-order="fill stroke markers" d=" M 58 41 L 62 41" stroke-linejoin="bevel" stroke-miterlimit="10"/><path fill="none" stroke="black" paint-order="fill stroke markers" d=" M 58 35 L 62 35" stroke-linejoin="bevel" stroke-miterlimit="10"/><path fill="" stroke="black" paint-order="fill stroke markers" d=" M 58 30 L 62 30" stroke-linejoin="bevel" stroke-miterlimit="10"/><g transform="translate(51,220) rotate(0,0,0)"><text fill="" stroke="none" font-family="helvetica" font-size="8pt" font-style="normal" font-weight="normal" text-decoration="normal" x="0" y="0" text-anchor="end" dominant-baseline="central">0.000e+0</text><g transform="rotate(0,0,0) translate(-51,-220) translate(51,193) rotate(0,0,0)"><text fill="" stroke="none" font-family="helvetica" font-size="8pt" font-style="normal" font-weight="normal" text-decoration="normal" x="0" y="0" text-anchor="end" dominant-baseline="central">1.000e+8</text><g transform="rotate(0,0,0) translate(-51,-193) translate(51,166) rotate(0,0,0)"><text fill="" stroke="none" font-family="helvetica" font-size="8pt" font-style="normal" font-weight="normal" text-decoration="normal" x="0" y="0" text-anchor="end" dominant-baseline="central">2.000e+8</text><g transform="rotate(0,0,0) translate(-51,-166) translate(51,139) rotate(0,0,0)"><text fill="" stroke="none" font-family="helvetica" font-size="8pt" font-style="normal" font-weight="normal" text-decoration="normal" x="0" y="0" text-anchor="end" dominant-baseline="central">3.000e+8</text><g transform="rotate(0,0,0) translate(-51,-139) translate(51,111) rotate(0,0,0)"><text fill="" stroke="none" font-family="helvetica" font-size="8pt" font-style="normal" font-weight="normal" text-decoration="normal" x="0" y="0" text-anchor="end" dominant-baseline="central">4.000e+8</text><g transform="rotate(0,0,0) translate(-51,-111) translate(51,84) rotate(0,0,0)"><text fill="" stroke="none" font-family="helvetica" font-size="8pt" font-style="normal" font-weight="normal" text-decoration="normal" x="0" y="0" text-anchor="end" dominant-baseline="central">5.000e+8</text><g transform="rotate(0,0,0) translate(-51,-84) translate(51,57) rotate(0,0,0)"><text fill="" stroke="none" font-family="helvetica" font-size="8pt" font-style="normal" font-weight="normal" text-decoration="normal" x="0" y="0" text-anchor="end" dominant-baseline="central">6.000e+8</text><g transform="rotate(0,0,0) translate(-51,-57) translate(51,30) rotate(0,0,0)"><text fill="" stroke="none" font-family="helvetica" font-size="8pt" font-style="normal" font-weight="normal" text-decoration="normal" x="0" y="0" text-anchor="end" dominant-baseline="central">7.000e+8</text><g transform="rotate(0,0,0) translate(-51,-30)"/></g></g></g></g></g></g></g></g></g><g fill="#444444"><path fill="" stroke="none" d=""/><g transform="translate(62,22)"><path fill="none" stroke="none"/><text fill="" stroke="none" font-family="helvetica" font-size="10pt" font-style="normal" font-weight="bold" text-decoration="normal" x="0" y="0" text-anchor="start" dominant-baseline="text-after-edge">Date vs App Size (Monthly)</text></g></g></g></g></g></svg>