<svg version="1.1" xmlns="http://www.w3.org/2000/svg" xmlns:xlink="http://www.w3.org/1999/xlink" width="750" height="250" style="width: 750px; height: 250px;"><defs><clipPath id="RCiPTPJReMlN"><path fill="none" stroke="none" d=" M 62 28 L 720 28 L 720 226 L 62 226 L 62 28 Z"/></clipPath><clipPath id="BFbDVbPpewhX"><path fill="none" stroke="none" d=" M 62 28 L 720 28 L 720 226 L 62 226 L 62 28 Z"/></clipPath><clipPath id="cTAxRzCTFvUH"><path fill="none" stroke="none" d=" M 62 28 L 720 28 L 720 226 L 62 226 L 62 28 Z"/></clipPath><clipPath id="iRTiMPfpuNVv"><path fill="none" stroke="none" d=" M 62 28 L 720 28 L 720 226 L 62 226 L 62 28 Z"/></clipPath></defs><g><g transform="scale(1,1) translate(0.5,0.5)"><rect fill="#FFFFFF" stroke="none" x="0" y="0" width="750" height="250"/><rect fill="#ffffff" stroke="none" x="0" y="0" width="750" height="250"/><rect fill="#FFFFFF" stroke="none" x="62" y="28" width="658" height="198"/><rect fill="#ffffff" stroke="none" x="62" y="28" width="658" height="198"/><g><rect fill="none" stroke="#e5e5e5" x="62" y="28" width="658" height="198" stroke-linejoin="bevel" stroke-miterlimit="10"/></g><g clip-path="url(#RCiPTPJReMlN)"><g><g><path fill="none" stroke="#e5e5e5" paint-order="fill stroke markers" d=" M 167 226 L 167 28" stroke-linejoin="bevel" stroke-miterlimit="10"/><path fill="none" stroke="#e5e5e5" paint-order="fill stroke markers" d=" M 274 226 L 274 28" stroke-linejoin="bevel" stroke-miterlimit="10"/><path fill="none" stroke="#e5e5e5" paint-order="fill stroke markers" d=" M 380 226 L 380 28" stroke-linejoin="bevel" stroke-miterlimit="10"/><path fill="none" stroke="#e5e5e5" paint-order="fill stroke markers" d=" M 486 226 L 486 28" stroke-linejoin="bevel" stroke-miterlimit="10"/><path fill="none" stroke="#e5e5e5" paint-order="fill stroke markers" d=" M 593 226 L 593 28" stroke-linejoin="bevel" stroke-miterlimit="10"/><path fill="none" stroke="#e5e5e5" paint-order="fill stroke markers" d=" M 699 226 L 699 28" stroke-linejoin="bevel" stroke-miterlimit="10"/></g></g></g><g clip-path="url(#BFbDVbPpewhX)"><g><g><path fill="none" stroke="#e5e5e5" paint-order="fill stroke markers" d=" M 62 220 L 720 220" stroke-linejoin="bevel" stroke-miterlimit="10"/><path fill="none" stroke="#e5e5e5" paint-order="fill stroke markers" d=" M 62 193 L 720 193" stroke-linejoin="bevel" stroke-miterlimit="10"/><path fill="none" stroke="#e5e5e5" paint-order="fill stroke markers" d=" M 62 166 L 720 166" stroke-linejoin="bevel" stroke-miterlimit="10"/><path fill="none" stroke="#e5e5e5" paint-order="fill stroke markers" d=" M 62 139 L 720 139" stroke-linejoin="bevel" stroke-miterlimit="10"/><path fill="none" stroke="#e5e5e5" paint-order="fill stroke markers" d=" M 62 112 L 720 112" stroke-linejoin="bevel" stroke-miterlimit="10"/><path fill="none" stroke="#e5e5e5" paint-order="fill stroke markers" d=" M 62 85 L 720 85" stroke-linejoin="bevel" stroke-miterlimit="10"/><path fill="none" stroke="#e5e5e5" paint-order="fill stroke markers" d=" M 62 58 L 720 58" stroke-linejoin="bevel" stroke-miterlimit="10"/><path fill="none" stroke="#e5e5e5" paint-order="fill stroke markers" d=" M 62 31 L 720 31" stroke-linejoin="bevel" stroke-miterlimit="10"/></g></g></g><g clip-path="url(#cTAxRzCTFvUH)"><g><g><path fill="none" stroke="none"/><path fill="none" stroke="Green" paint-order="fill stroke markers" d=" M 91.90909090909099 214.6794558185314 L 96.4220226111197 211.1843834623634 L 100.78937587114751 217 L 105.30230757317622 213.34259977078673 L 109.66966083320449 216.64798378758377 L 114.1825925352332 211.78310648729433 L 118.6955242372619 216.43026215760378 L 122.77172061328793 213.48381110485514 L 127.28465231531663 209.59750282629162 L 131.65200557534445 201.21328004572644 L 136.1649372773736 204.74554743391468 L 140.53229053740142 213.21629500630408 L 145.04522223943013 205.49062696992766 L 149.55815394145884 214.3794712269474 L 153.92550720148665 211.82339834723481 L 158.43843890351582 198.27514973956076 L 162.80579216354363 205.0379058266012 L 167.31872386557234 212.22873291181722 L 171.83165556760105 214.92622680787693 L 175.90785194362707 215.65483758994304 L 180.42078364565577 208.5495160002764 L 184.7881369056836 208.6301695830217 L 189.30106860771275 204.39973343374265 L 193.66842186774056 205.00101074583537 L 198.18135356976927 210.20064601645024 L 202.69428527179798 213.61138090571941 L 207.0616385318258 188.93718576822658 L 211.57457023385496 201.01354480157102 L 215.94192349388277 205.00220161021548 L 220.45485519591148 209.86776065893173 L 224.9677868979402 209.50898503736667 L 229.0439832739662 207.62262809797244 L 233.5569149759949 209.7504408984675 L 237.92426823602318 205.77195120094942 L 242.4371999380519 203.8367897004914 L 246.8045531980797 204.55761636236568 L 251.3174849001084 204.0677852151574 L 255.83041660213712 199.0445243594348 L 260.19776986216493 200.9943268881753 L 264.7107015641941 203.70086785756067 L 269.0780548242219 193.9339749940109 L 273.5909865262506 202.10430722140325 L 278.1039182282793 202.87956881599712 L 282.32569304630624 201.89398212496965 L 286.8386247483354 203.7338363123804 L 291.2059780083632 198.7452527250989 L 295.7189097103919 202.3750462846018 L 300.08626297041974 202.8509566487259 L 304.59919467244845 199.68762336415762 L 309.11212637447716 199.61440013438516 L 313.4794796345054 196.5915823794792 L 317.99241133653413 200.5405905480381 L 322.35976459656194 189.4485885844327 L 326.87269629859065 189.41405784772678 L 331.38562800061936 198.46058803113652 L 335.4618243766454 205.66281284721498 L 339.97475607867455 200.54201193328777 L 344.34210933870236 199.9655100961137 L 348.85504104073107 202.13512886311815 L 353.2223943007589 196.81200899816542 L 357.7353260027876 198.5251138366131 L 362.2482577048163 194.86140186124538 L 366.61561096484456 198.7194262714281 L 371.1285426668733 196.61822388339354 L 375.4958959269011 195.81723665339754 L 380.0088276289298 189.12133124887296 L 384.5217593309585 198.56535468191845 L 388.5979557069845 198.66904638614534 L 393.1108874090137 203.05004807050153 L 397.4782406690415 200.49554983947792 L 401.9911723710702 198.88515362412846 L 406.358525631098 202.0851577572814 L 410.8714573331267 200.88303500806944 L 415.3843890351559 203.54127617917672 L 419.7517422951837 197.36621119047123 L 424.2646739972124 197.8537577094909 L 428.6320272572402 179.70594476884784 L 433.14495895926893 200.45081872941762 L 437.65789066129764 197.68407914323765 L 441.73408703732366 199.5397751821818 L 446.2470187393528 191.4132154078841 L 450.61437199938064 199.62734100884805 L 455.12730370140935 195.90995325703557 L 459.49465696143716 193.31358795895346 L 464.00758866346587 192.41433800553037 L 468.52052036549503 192.7229003497252 L 472.88787362552284 196.36674035226815 L 477.40080532755155 196.5451115613894 L 481.76815858757936 196.76853823288366 L 486.2810902896081 190.61542564473174 L 490.79402199163724 192.80682711868548 L 495.01579680966415 199.5672335072833 L 499.52872851169286 195.96408864951098 L 503.8960817717207 194.55920140756615 L 508.4090134737494 197.00953065354142 L 512.7763667337772 194.67476494693486 L 517.2892984358064 194.73290697459962 L 521.8022301378351 162.95801179276182 L 526.1695833978629 191.9896446924188 L 530.6825150998916 192.63894818576077 L 535.0498683599194 184.80595742598553 L 539.5628000619481 187.57724075226815 L 544.0757317639773 189.77318422450404 L 548.1519281400033 188.90841629412105 L 552.664859842032 187.53467600840276 L 557.0322131020598 186.46949985342968 L 561.5451448040885 185.85415166346195 L 565.9124980641163 186.37079962527983 L 570.4254297661455 183.19690866257332 L 574.9383614681742 181.7488116424082 L 579.305714728202 189.71632904838236 L 583.8186464302307 173.70013841020258 L 588.1859996902585 174.4530589667037 L 592.6989313922872 172.4604510283227 L 597.2118630943164 178.21756677306536 L 601.2880594703424 179.91087022114186 L 605.8009911723711 170.7635827219891 L 610.168344432399 174.04954180448675 L 614.6812761344277 172.6469386111952 L 619.0486293944555 178.76768379110183 L 623.5615610964846 183.1502992822516 L 628.0744927985133 176.2155368984064 L 632.4418460585412 178.128573721897 L 636.9547777605699 174.2916612871404 L 641.3221310205977 174.27960434052193 L 645.8350627226268 167.93720804510443 L 650.3479944246556 174.96578574614688 L 654.4241908006816 171.70804967517364 L 658.9371225027103 169.1316608063097 L 663.3044757627381 165.51414134059644 L 667.8174074647668 168.9393359474043 L 672.1847607247946 167.52202167443323 L 676.6976924268238 174.8780521586772 L 681.2106241288525 167.8855690489173 L 685.5779773888803 37.00000000000003 L 690.090909090909 162.70701211369789" stroke-linejoin="bevel" stroke-miterlimit="10" stroke-width="2"/></g></g></g><g><g fill="#444444"><path fill="" stroke="none" d=""/><g transform="translate(62,23)"><path fill="none" stroke="none"/><text fill="" stroke="none" font-family="helvetica" font-size="10pt" font-style="normal" font-weight="bold" text-decoration="normal" x="0" y="0" text-anchor="start" dominant-baseline="text-after-edge">Date vs App Size (Monthly)</text></g></g></g><g/><g><g fill="#444444"><path fill="none" stroke="black" paint-order="fill stroke markers" d=" M 62 226 L 720 226" stroke-linejoin="bevel" stroke-miterlimit="10"/><path fill="none" stroke="black" paint-order="fill stroke markers" d=" M 167 232 L 167 224" stroke-linejoin="bevel" stroke-miterlimit="10"/><path fill="none" stroke="black" paint-order="fill stroke markers" d=" M 274 232 L 274 224" stroke-linejoin="bevel" stroke-miterlimit="10"/><path fill="none" stroke="black" paint-order="fill stroke markers" d=" M 380 232 L 380 224" stroke-linejoin="bevel" stroke-miterlimit="10"/><path fill="none" stroke="black" paint-order="fill stroke markers" d=" M 486 232 L 486 224" stroke-linejoin="bevel" stroke-miterlimit="10"/><path fill="none" stroke="black" paint-order="fill stroke markers" d=" M 593 232 L 593 224" stroke-linejoin="bevel" stroke-miterlimit="10"/><path fill="" stroke="black" paint-order="fill stroke markers" d=" M 699 232 L 699 224" stroke-linejoin="bevel" stroke-miterlimit="10"/><g transform="translate(167,237) rotate(0,0,0)"><text fill="" stroke="none" font-family="helvetica" font-size="8pt" font-style="normal" font-weight="normal" text-decoration="normal" x="0" y="0" text-anchor="middle" dominant-baseline="hanging">2010</text><g transform="rotate(0,0,0) translate(-167,-237) translate(274,237) rotate(0,0,0)"><text fill="" stroke="none" font-family="helvetica" font-size="8pt" font-style="normal" font-weight="normal" text-decoration="normal" x="0" y="0" text-anchor="middle" dominant-baseline="hanging">2012</text><g transform="rotate(0,0,0) translate(-274,-237) translate(380,237) rotate(0,0,0)"><text fill="" stroke="none" font-family="helvetica" font-size="8pt" font-style="normal" font-weight="normal" text-decoration="normal" x="0" y="0" text-anchor="middle" dominant-baseline="hanging">2014</text><g transform="rotate(0,0,0) translate(-380,-237) translate(486,237) rotate(0,0,0)"><text fill="" stroke="none" font-family="helvetica" font-size="8pt" font-style="normal" font-weight="normal" text-decoration="normal" x="0" y="0" text-anchor="middle" dominant-baseline="hanging">2016</text><g transform="rotate(0,0,0) translate(-486,-237) translate(593,237) rotate(0,0,0)"><text fill="" stroke="none" font-family="helvetica" font-size="8pt" font-style="normal" font-weight="normal" text-decoration="normal" x="0" y="0" text-anchor="middle" dominant-baseline="hanging">2018</text><g transform="rotate(0,0,0) translate(-593,-237) translate(699,237) rotate(0,0,0)"><text fill="" stroke="none" font-family="helvetica" font-size="8pt" font-style="normal" font-weight="normal" text-decoration="normal" x="0" y="0" text-anchor="middle" dominant-baseline="hanging">2020</text><g transform="rotate(0,0,0) translate(-699,-237)"/></g></g></g></g></g></g></g></g><g><g fill="#444444"><path fill="none" stroke="black" paint-order="fill stroke markers" d=" M 62 226 L 62 28" stroke-linejoin="bevel" stroke-miterlimit="10"/><path fill="none" stroke="black" paint-order="fill stroke markers" d=" M 56 220 L 64 220" stroke-linejoin="bevel" stroke-miterlimit="10"/><path fill="none" stroke="black" paint-order="fill stroke markers" d=" M 56 193 L 64 193" stroke-linejoin="bevel" stroke-miterlimit="10"/><path fill="none" stroke="black" paint-order="fill stroke markers" d=" M 56 166 L 64 166" stroke-linejoin="bevel" stroke-miterlimit="10"/><path fill="none" stroke="black" paint-order="fill stroke markers" d=" M 56 139 L 64 139" stroke-linejoin="bevel" stroke-miterlimit="10"/><path fill="none" stroke="black" paint-order="fill stroke markers" d=" M 56 112 L 64 112" stroke-linejoin="bevel" stroke-miterlimit="10"/><path fill="none" stroke="black" paint-order="fill stroke markers" d=" M 56 85 L 64 85" stroke-linejoin="bevel" stroke-miterlimit="10"/><path fill="none" stroke="black" paint-order="fill stroke markers" d=" M 56 58 L 64 58" stroke-linejoin="bevel" stroke-miterlimit="10"/><path fill="none" stroke="black" paint-order="fill stroke markers" d=" M 56 31 L 64 31" stroke-linejoin="bevel" stroke-miterlimit="10"/><path fill="none" stroke="black" paint-order="fill stroke markers" d=" M 58 225 L 62 225" stroke-linejoin="bevel" stroke-miterlimit="10"/><path fill="none" stroke="black" paint-order="fill stroke markers" d=" M 58 220 L 62 220" stroke-linejoin="bevel" stroke-miterlimit="10"/><path fill="none" stroke="black" paint-order="fill stroke markers" d=" M 58 215 L 62 215" stroke-linejoin="bevel" stroke-miterlimit="10"/><path fill="none" stroke="black" paint-order="fill stroke markers" d=" M 58 209 L 62 209" stroke-linejoin="bevel" stroke-miterlimit="10"/><path fill="none" stroke="black" paint-order="fill stroke markers" d=" M 58 204 L 62 204" stroke-linejoin="bevel" stroke-miterlimit="10"/><path fill="none" stroke="black" paint-order="fill stroke markers" d=" M 58 198 L 62 198" stroke-linejoin="bevel" stroke-miterlimit="10"/><path fill="none" stroke="black" paint-order="fill stroke markers" d=" M 58 193 L 62 193" stroke-linejoin="bevel" stroke-miterlimit="10"/><path fill="none" stroke="black" paint-order="fill stroke markers" d=" M 58 188 L 62 188" stroke-linejoin="bevel" stroke-miterlimit="10"/><path fill="none" stroke="black" paint-order="fill stroke markers" d=" M 58 182 L 62 182" stroke-linejoin="bevel" stroke-miterlimit="10"/><path fill="none" stroke="black" paint-order="fill stroke markers" d=" M 58 177 L 62 177" stroke-linejoin="bevel" stroke-miterlimit="10"/><path fill="none" stroke="black" paint-order="fill stroke markers" d=" M 58 171 L 62 171" stroke-linejoin="bevel" stroke-miterlimit="10"/><path fill="none" stroke="black" paint-order="fill stroke markers" d=" M 58 166 L 62 166" stroke-linejoin="bevel" stroke-miterlimit="10"/><path fill="none" stroke="black" paint-order="fill stroke markers" d=" M 58 161 L 62 161" stroke-linejoin="bevel" stroke-miterlimit="10"/><path fill="none" stroke="black" paint-order="fill stroke markers" d=" M 58 155 L 62 155" stroke-linejoin="bevel" stroke-miterlimit="10"/><path fill="none" stroke="black" paint-order="fill stroke markers" d=" M 58 150 L 62 150" stroke-linejoin="bevel" stroke-miterlimit="10"/><path fill="none" stroke="black" paint-order="fill stroke markers" d=" M 58 144 L 62 144" stroke-linejoin="bevel" stroke-miterlimit="10"/><path fill="none" stroke="black" paint-order="fill stroke markers" d=" M 58 139 L 62 139" stroke-linejoin="bevel" stroke-miterlimit="10"/><path fill="none" stroke="black" paint-order="fill stroke markers" d=" M 58 134 L 62 134" stroke-linejoin="bevel" stroke-miterlimit="10"/><path fill="none" stroke="black" paint-order="fill stroke markers" d=" M 58 128 L 62 128" stroke-linejoin="bevel" stroke-miterlimit="10"/><path fill="none" stroke="black" paint-order="fill stroke markers" d=" M 58 123 L 62 123" stroke-linejoin="bevel" stroke-miterlimit="10"/><path fill="none" stroke="black" paint-order="fill stroke markers" d=" M 58 117 L 62 117" stroke-linejoin="bevel" stroke-miterlimit="10"/><path fill="none" stroke="black" paint-order="fill stroke markers" d=" M 58 112 L 62 112" stroke-linejoin="bevel" stroke-miterlimit="10"/><path fill="none" stroke="black" paint-order="fill stroke markers" d=" M 58 107 L 62 107" stroke-linejoin="bevel" stroke-miterlimit="10"/><path fill="none" stroke="black" paint-order="fill stroke markers" d=" M 58 101 L 62 101" stroke-linejoin="bevel" stroke-miterlimit="10"/><path fill="none" stroke="black" paint-order="fill stroke markers" d=" M 58 96 L 62 96" stroke-linejoin="bevel" stroke-miterlimit="10"/><path fill="none" stroke="black" paint-order="fill stroke markers" d=" M 58 90 L 62 90" stroke-linejoin="bevel" stroke-miterlimit="10"/><path fill="none" stroke="black" paint-order="fill stroke markers" d=" M 58 85 L 62 85" stroke-linejoin="bevel" stroke-miterlimit="10"/><path fill="none" stroke="black" paint-order="fill stroke markers" d=" M 58 80 L 62 80" stroke-linejoin="bevel" stroke-miterlimit="10"/><path fill="none" stroke="black" paint-order="fill stroke markers" d=" M 58 74 L 62 74" stroke-linejoin="bevel" stroke-miterlimit="10"/><path fill="none" stroke="black" paint-order="fill stroke markers" d=" M 58 69 L 62 69" stroke-linejoin="bevel" stroke-miterlimit="10"/><path fill="none" stroke="black" paint-order="fill stroke markers" d=" M 58 63 L 62 63" stroke-linejoin="bevel" stroke-miterlimit="10"/><path fill="none" stroke="black" paint-order="fill stroke markers" d=" M 58 58 L 62 58" stroke-linejoin="bevel" stroke-miterlimit="10"/><path fill="none" stroke="black" paint-order="fill stroke markers" d=" M 58 53 L 62 53" stroke-linejoin="bevel" stroke-miterlimit="10"/><path fill="none" stroke="black" paint-order="fill stroke markers" d=" M 58 47 L 62 47" stroke-linejoin="bevel" stroke-miterlimit="10"/><path fill="none" stroke="black" paint-order="fill stroke markers" d=" M 58 42 L 62 42" stroke-linejoin="bevel" stroke-miterlimit="10"/><path fill="none" stroke="black" paint-order="fill stroke markers" d=" M 58 36 L 62 36" stroke-linejoin="bevel" stroke-miterlimit="10"/><path fill="" stroke="black" paint-order="fill stroke markers" d=" M 58 31 L 62 31" stroke-linejoin="bevel" stroke-miterlimit="10"/><g transform="translate(51,220) rotate(0,0,0)"><text fill="" stroke="none" font-family="helvetica" font-size="8pt" font-style="normal" font-weight="normal" text-decoration="normal" x="0" y="0" text-anchor="end" dominant-baseline="central">0.000e+0</text><g transform="rotate(0,0,0) translate(-51,-220) translate(51,193) rotate(0,0,0)"><text fill="" stroke="none" font-family="helvetica" font-size="8pt" font-style="normal" font-weight="normal" text-decoration="normal" x="0" y="0" text-anchor="end" dominant-baseline="central">1.000e+8</text><g transform="rotate(0,0,0) translate(-51,-193) translate(51,166) rotate(0,0,0)"><text fill="" stroke="none" font-family="helvetica" font-size="8pt" font-style="normal" font-weight="normal" text-decoration="normal" x="0" y="0" text-anchor="end" dominant-baseline="central">2.000e+8</text><g transform="rotate(0,0,0) translate(-51,-166) translate(51,139) rotate(0,0,0)"><text fill="" stroke="none" font-family="helvetica" font-size="8pt" font-style="normal" font-weight="normal" text-decoration="normal" x="0" y="0" text-anchor="end" dominant-baseline="central">3.000e+8</text><g transform="rotate(0,0,0) translate(-51,-139) translate(51,112) rotate(0,0,0)"><text fill="" stroke="none" font-family="helvetica" font-size="8pt" font-style="normal" font-weight="normal" text-decoration="normal" x="0" y="0" text-anchor="end" dominant-baseline="central">4.000e+8</text><g transform="rotate(0,0,0) translate(-51,-112) translate(51,85) rotate(0,0,0)"><text fill="" stroke="none" font-family="helvetica" font-size="8pt" font-style="normal" font-weight="normal" text-decoration="normal" x="0" y="0" text-anchor="end" dominant-baseline="central">5.000e+8</text><g transform="rotate(0,0,0) translate(-51,-85) translate(51,58) rotate(0,0,0)"><text fill="" stroke="none" font-family="helvetica" font-size="8pt" font-style="normal" font-weight="normal" text-decoration="normal" x="0" y="0" text-anchor="end" dominant-baseline="central">6.000e+8</text><g transform="rotate(0,0,0) translate(-51,-58) translate(51,31) rotate(0,0,0)"><text fill="" stroke="none" font-family="helvetica" font-size="8pt" font-style="normal" font-weight="normal" text-decoration="normal" x="0" y="0" text-anchor="end" dominant-baseline="central">7.000e+8</text><g transform="rotate(0,0,0) translate(-51,-31)"/></g></g></g></g></g></g></g></g></g></g><g clip-path="url(#iRTiMPfpuNVv)"><g/></g></g></g></svg>