<svg version="1.1" xmlns="http://www.w3.org/2000/svg" xmlns:xlink="http://www.w3.org/1999/xlink" width="600" height="250" style="width: 600px; height: 250px;"><defs><clipPath id="PToGdsKKDGFE"><path fill="none" stroke="none" d=" M 31 27 L 595 27 L 595 226 L 31 226 L 31 27 Z"/></clipPath><clipPath id="qxNkvvqVPKxy"><path fill="none" stroke="none" d=" M 31 27 L 595 27 L 595 226 L 31 226 L 31 27 Z"/></clipPath></defs><g><g transform="scale(1,1) translate(0.5,0.5)"><rect fill="#FFFFFF" stroke="none" x="0" y="0" width="600" height="250"/><rect fill="#ffffff" stroke="none" x="0" y="0" width="600" height="250"/><rect fill="#FFFFFF" stroke="none" x="31" y="27" width="564" height="199"/><rect fill="#ffffff" stroke="none" x="31" y="27" width="564" height="199"/><g><rect fill="none" stroke="#e5e5e5" x="31" y="27" width="564" height="199" stroke-linejoin="bevel" stroke-miterlimit="10"/></g><g clip-path="url(#PToGdsKKDGFE)"><g><g/><g><path fill="none" stroke="#e5e5e5" paint-order="fill stroke markers" d=" M 31 183 L 595 183" stroke-linejoin="bevel" stroke-miterlimit="10"/><path fill="none" stroke="#e5e5e5" paint-order="fill stroke markers" d=" M 31 139 L 595 139" stroke-linejoin="bevel" stroke-miterlimit="10"/><path fill="none" stroke="#e5e5e5" paint-order="fill stroke markers" d=" M 31 96 L 595 96" stroke-linejoin="bevel" stroke-miterlimit="10"/><path fill="none" stroke="#e5e5e5" paint-order="fill stroke markers" d=" M 31 53 L 595 53" stroke-linejoin="bevel" stroke-miterlimit="10"/></g><g><path fill="none" stroke="none"/><rect fill="green" stroke="none" x="34.133333333333326" y="222.10567514677103" width="56.400000000000006" height="3.894324853228966"/><path fill="none" stroke="green" paint-order="fill stroke markers" d=" M 34.133333333333326 222.10567514677103 L 90.53333333333333 222.10567514677103 L 90.53333333333333 226 L 34.133333333333326 226 L 34.133333333333326 222.10567514677103 Z" stroke-linejoin="bevel" stroke-miterlimit="10"/><rect fill="green" stroke="none" x="96.80000000000001" y="219.9421613394216" width="56.39999999999998" height="6.057838660578398"/><path fill="none" stroke="green" paint-order="fill stroke markers" d=" M 96.80000000000001 219.9421613394216 L 153.2 219.9421613394216 L 153.2 226 L 96.80000000000001 226 L 96.80000000000001 219.9421613394216 Z" stroke-linejoin="bevel" stroke-miterlimit="10"/><rect fill="green" stroke="none" x="159.46666666666664" y="216.48053924766253" width="56.400000000000034" height="9.519460752337466"/><path fill="none" stroke="green" paint-order="fill stroke markers" d=" M 159.46666666666664 216.48053924766253 L 215.86666666666667 216.48053924766253 L 215.86666666666667 226 L 159.46666666666664 226 L 159.46666666666664 216.48053924766253 Z" stroke-linejoin="bevel" stroke-miterlimit="10"/><rect fill="green" stroke="none" x="222.13333333333333" y="204.79756468797564" width="56.39999999999998" height="21.202435312024363"/><path fill="none" stroke="green" paint-order="fill stroke markers" d=" M 222.13333333333333 204.79756468797564 L 278.5333333333333 204.79756468797564 L 278.5333333333333 226 L 222.13333333333333 226 L 222.13333333333333 204.79756468797564 Z" stroke-linejoin="bevel" stroke-miterlimit="10"/><rect fill="green" stroke="none" x="284.79999999999995" y="188.35485975212003" width="56.40000000000009" height="37.645140247879965"/><path fill="none" stroke="green" paint-order="fill stroke markers" d=" M 284.79999999999995 188.35485975212003 L 341.20000000000005 188.35485975212003 L 341.20000000000005 226 L 284.79999999999995 226 L 284.79999999999995 188.35485975212003 Z" stroke-linejoin="bevel" stroke-miterlimit="10"/><rect fill="green" stroke="none" x="347.4666666666666" y="153.73863883452924" width="56.40000000000009" height="72.26136116547076"/><path fill="none" stroke="green" paint-order="fill stroke markers" d=" M 347.4666666666666 153.73863883452924 L 403.8666666666667 153.73863883452924 L 403.8666666666667 226 L 347.4666666666666 226 L 347.4666666666666 153.73863883452924 Z" stroke-linejoin="bevel" stroke-miterlimit="10"/><rect fill="green" stroke="none" x="410.1333333333333" y="92.29484670580561" width="56.39999999999998" height="133.7051532941944"/><path fill="none" stroke="green" paint-order="fill stroke markers" d=" M 410.1333333333333 92.29484670580561 L 466.5333333333333 92.29484670580561 L 466.5333333333333 226 L 410.1333333333333 226 L 410.1333333333333 92.29484670580561 Z" stroke-linejoin="bevel" stroke-miterlimit="10"/><rect fill="green" stroke="none" x="472.79999999999995" y="36.47619047619045" width="56.40000000000009" height="189.52380952380955"/><path fill="none" stroke="green" paint-order="fill stroke markers" d=" M 472.79999999999995 36.47619047619045 L 529.2 36.47619047619045 L 529.2 226 L 472.79999999999995 226 L 472.79999999999995 36.47619047619045 Z" stroke-linejoin="bevel" stroke-miterlimit="10"/><rect fill="green" stroke="none" x="535.4666666666667" y="164.98891063274624" width="56.399999999999864" height="61.01108936725376"/><path fill="none" stroke="green" paint-order="fill stroke markers" d=" M 535.4666666666667 164.98891063274624 L 591.8666666666666 164.98891063274624 L 591.8666666666666 226 L 535.4666666666667 226 L 535.4666666666667 164.98891063274624 Z" stroke-linejoin="bevel" stroke-miterlimit="10"/></g></g></g><g clip-path="url(#qxNkvvqVPKxy)"><g/></g><g><g fill="#444444"><path fill="none" stroke="black" paint-order="fill stroke markers" d=" M 31 226 L 595 226" stroke-linejoin="bevel" stroke-miterlimit="10"/><path fill="none" stroke="black" paint-order="fill stroke markers" d=" M 62 232 L 62 224" stroke-linejoin="bevel" stroke-miterlimit="10"/><path fill="none" stroke="black" paint-order="fill stroke markers" d=" M 125 232 L 125 224" stroke-linejoin="bevel" stroke-miterlimit="10"/><path fill="none" stroke="black" paint-order="fill stroke markers" d=" M 188 232 L 188 224" stroke-linejoin="bevel" stroke-miterlimit="10"/><path fill="none" stroke="black" paint-order="fill stroke markers" d=" M 250 232 L 250 224" stroke-linejoin="bevel" stroke-miterlimit="10"/><path fill="none" stroke="black" paint-order="fill stroke markers" d=" M 313 232 L 313 224" stroke-linejoin="bevel" stroke-miterlimit="10"/><path fill="none" stroke="black" paint-order="fill stroke markers" d=" M 376 232 L 376 224" stroke-linejoin="bevel" stroke-miterlimit="10"/><path fill="none" stroke="black" paint-order="fill stroke markers" d=" M 438 232 L 438 224" stroke-linejoin="bevel" stroke-miterlimit="10"/><path fill="none" stroke="black" paint-order="fill stroke markers" d=" M 501 232 L 501 224" stroke-linejoin="bevel" stroke-miterlimit="10"/><path fill="" stroke="black" paint-order="fill stroke markers" d=" M 564 232 L 564 224" stroke-linejoin="bevel" stroke-miterlimit="10"/><g transform="translate(62,237) rotate(0,0,0)"><text fill="" stroke="none" font-family="helvetica" font-size="8pt" font-style="normal" font-weight="normal" text-decoration="normal" x="0" y="0" text-anchor="middle" dominant-baseline="hanging">1.0</text><g transform="rotate(0,0,0) translate(-62,-237) translate(125,237) rotate(0,0,0)"><text fill="" stroke="none" font-family="helvetica" font-size="8pt" font-style="normal" font-weight="normal" text-decoration="normal" x="0" y="0" text-anchor="middle" dominant-baseline="hanging">1.5</text><g transform="rotate(0,0,0) translate(-125,-237) translate(188,237) rotate(0,0,0)"><text fill="" stroke="none" font-family="helvetica" font-size="8pt" font-style="normal" font-weight="normal" text-decoration="normal" x="0" y="0" text-anchor="middle" dominant-baseline="hanging">2.0</text><g transform="rotate(0,0,0) translate(-188,-237) translate(250,237) rotate(0,0,0)"><text fill="" stroke="none" font-family="helvetica" font-size="8pt" font-style="normal" font-weight="normal" text-decoration="normal" x="0" y="0" text-anchor="middle" dominant-baseline="hanging">2.5</text><g transform="rotate(0,0,0) translate(-250,-237) translate(313,237) rotate(0,0,0)"><text fill="" stroke="none" font-family="helvetica" font-size="8pt" font-style="normal" font-weight="normal" text-decoration="normal" x="0" y="0" text-anchor="middle" dominant-baseline="hanging">3.0</text><g transform="rotate(0,0,0) translate(-313,-237) translate(376,237) rotate(0,0,0)"><text fill="" stroke="none" font-family="helvetica" font-size="8pt" font-style="normal" font-weight="normal" text-decoration="normal" x="0" y="0" text-anchor="middle" dominant-baseline="hanging">3.5</text><g transform="rotate(0,0,0) translate(-376,-237) translate(438,237) rotate(0,0,0)"><text fill="" stroke="none" font-family="helvetica" font-size="8pt" font-style="normal" font-weight="normal" text-decoration="normal" x="0" y="0" text-anchor="middle" dominant-baseline="hanging">4.0</text><g transform="rotate(0,0,0) translate(-438,-237) translate(501,237) rotate(0,0,0)"><text fill="" stroke="none" font-family="helvetica" font-size="8pt" font-style="normal" font-weight="normal" text-decoration="normal" x="0" y="0" text-anchor="middle" dominant-baseline="hanging">4.5</text><g transform="rotate(0,0,0) translate(-501,-237) translate(564,237) rotate(0,0,0)"><text fill="" stroke="none" font-family="helvetica" font-size="8pt" font-style="normal" font-weight="normal" text-decoration="normal" x="0" y="0" text-anchor="middle" dominant-baseline="hanging">5.0</text><g transform="rotate(0,0,0) translate(-564,-237)"/></g></g></g></g></g></g></g></g></g></g><g fill="#444444"><path fill="none" stroke="black" paint-order="fill stroke markers" d=" M 31 226 L 31 27" stroke-linejoin="bevel" stroke-miterlimit="10"/><path fill="none" stroke="black" paint-order="fill stroke markers" d=" M 25 226 L 33 226" stroke-linejoin="bevel" stroke-miterlimit="10"/><path fill="none" stroke="black" paint-order="fill stroke markers" d=" M 25 183 L 33 183" stroke-linejoin="bevel" stroke-miterlimit="10"/><path fill="none" stroke="black" paint-order="fill stroke markers" d=" M 25 139 L 33 139" stroke-linejoin="bevel" stroke-miterlimit="10"/><path fill="none" stroke="black" paint-order="fill stroke markers" d=" M 25 96 L 33 96" stroke-linejoin="bevel" stroke-miterlimit="10"/><path fill="none" stroke="black" paint-order="fill stroke markers" d=" M 25 53 L 33 53" stroke-linejoin="bevel" stroke-miterlimit="10"/><path fill="none" stroke="black" paint-order="fill stroke markers" d=" M 27 226 L 31 226" stroke-linejoin="bevel" stroke-miterlimit="10"/><path fill="none" stroke="black" paint-order="fill stroke markers" d=" M 27 217 L 31 217" stroke-linejoin="bevel" stroke-miterlimit="10"/><path fill="none" stroke="black" paint-order="fill stroke markers" d=" M 27 209 L 31 209" stroke-linejoin="bevel" stroke-miterlimit="10"/><path fill="none" stroke="black" paint-order="fill stroke markers" d=" M 27 200 L 31 200" stroke-linejoin="bevel" stroke-miterlimit="10"/><path fill="none" stroke="black" paint-order="fill stroke markers" d=" M 27 191 L 31 191" stroke-linejoin="bevel" stroke-miterlimit="10"/><path fill="none" stroke="black" paint-order="fill stroke markers" d=" M 27 183 L 31 183" stroke-linejoin="bevel" stroke-miterlimit="10"/><path fill="none" stroke="black" paint-order="fill stroke markers" d=" M 27 174 L 31 174" stroke-linejoin="bevel" stroke-miterlimit="10"/><path fill="none" stroke="black" paint-order="fill stroke markers" d=" M 27 165 L 31 165" stroke-linejoin="bevel" stroke-miterlimit="10"/><path fill="none" stroke="black" paint-order="fill stroke markers" d=" M 27 157 L 31 157" stroke-linejoin="bevel" stroke-miterlimit="10"/><path fill="none" stroke="black" paint-order="fill stroke markers" d=" M 27 148 L 31 148" stroke-linejoin="bevel" stroke-miterlimit="10"/><path fill="none" stroke="black" paint-order="fill stroke markers" d=" M 27 139 L 31 139" stroke-linejoin="bevel" stroke-miterlimit="10"/><path fill="none" stroke="black" paint-order="fill stroke markers" d=" M 27 131 L 31 131" stroke-linejoin="bevel" stroke-miterlimit="10"/><path fill="none" stroke="black" paint-order="fill stroke markers" d=" M 27 122 L 31 122" stroke-linejoin="bevel" stroke-miterlimit="10"/><path fill="none" stroke="black" paint-order="fill stroke markers" d=" M 27 113 L 31 113" stroke-linejoin="bevel" stroke-miterlimit="10"/><path fill="none" stroke="black" paint-order="fill stroke markers" d=" M 27 105 L 31 105" stroke-linejoin="bevel" stroke-miterlimit="10"/><path fill="none" stroke="black" paint-order="fill stroke markers" d=" M 27 96 L 31 96" stroke-linejoin="bevel" stroke-miterlimit="10"/><path fill="none" stroke="black" paint-order="fill stroke markers" d=" M 27 88 L 31 88" stroke-linejoin="bevel" stroke-miterlimit="10"/><path fill="none" stroke="black" paint-order="fill stroke markers" d=" M 27 79 L 31 79" stroke-linejoin="bevel" stroke-miterlimit="10"/><path fill="none" stroke="black" paint-order="fill stroke markers" d=" M 27 70 L 31 70" stroke-linejoin="bevel" stroke-miterlimit="10"/><path fill="none" stroke="black" paint-order="fill stroke markers" d=" M 27 62 L 31 62" stroke-linejoin="bevel" stroke-miterlimit="10"/><path fill="none" stroke="black" paint-order="fill stroke markers" d=" M 27 53 L 31 53" stroke-linejoin="bevel" stroke-miterlimit="10"/><path fill="none" stroke="black" paint-order="fill stroke markers" d=" M 27 44 L 31 44" stroke-linejoin="bevel" stroke-miterlimit="10"/><path fill="" stroke="black" paint-order="fill stroke markers" d=" M 27 36 L 31 36" stroke-linejoin="bevel" stroke-miterlimit="10"/><g transform="translate(20,226) rotate(0,0,0)"><text fill="" stroke="none" font-family="helvetica" font-size="8pt" font-style="normal" font-weight="normal" text-decoration="normal" x="0" y="0" text-anchor="end" dominant-baseline="central">0</text><g transform="rotate(0,0,0) translate(-20,-226) translate(20,183) rotate(0,0,0)"><text fill="" stroke="none" font-family="helvetica" font-size="8pt" font-style="normal" font-weight="normal" text-decoration="normal" x="0" y="0" text-anchor="end" dominant-baseline="central">100</text><g transform="rotate(0,0,0) translate(-20,-183) translate(20,139) rotate(0,0,0)"><text fill="" stroke="none" font-family="helvetica" font-size="8pt" font-style="normal" font-weight="normal" text-decoration="normal" x="0" y="0" text-anchor="end" dominant-baseline="central">200</text><g transform="rotate(0,0,0) translate(-20,-139) translate(20,96) rotate(0,0,0)"><text fill="" stroke="none" font-family="helvetica" font-size="8pt" font-style="normal" font-weight="normal" text-decoration="normal" x="0" y="0" text-anchor="end" dominant-baseline="central">300</text><g transform="rotate(0,0,0) translate(-20,-96) translate(20,53) rotate(0,0,0)"><text fill="" stroke="none" font-family="helvetica" font-size="8pt" font-style="normal" font-weight="normal" text-decoration="normal" x="0" y="0" text-anchor="end" dominant-baseline="central">400</text><g transform="rotate(0,0,0) translate(-20,-53)"/></g></g></g></g></g></g><g fill="#444444"><path fill="" stroke="none" d=""/><g transform="translate(31,22)"><path fill="none" stroke="none"/><text fill="" stroke="none" font-family="helvetica" font-size="10pt" font-style="normal" font-weight="bold" text-decoration="normal" x="0" y="0" text-anchor="start" dominant-baseline="text-after-edge">Average User Rating VS Paid</text></g></g></g></g></g></svg>