<svg version="1.1" xmlns="http://www.w3.org/2000/svg" xmlns:xlink="http://www.w3.org/1999/xlink" width="600" height="250" style="width: 600px; height: 250px;"><defs><clipPath id="gFhySQvvfNNx"><path fill="none" stroke="none" d=" M 38 27 L 595 27 L 595 226 L 38 226 L 38 27 Z"/></clipPath><clipPath id="FRTNPCGBuPgr"><path fill="none" stroke="none" d=" M 38 27 L 595 27 L 595 226 L 38 226 L 38 27 Z"/></clipPath></defs><g><g transform="scale(1,1) translate(0.5,0.5)"><rect fill="#FFFFFF" stroke="none" x="0" y="0" width="600" height="250"/><rect fill="#ffffff" stroke="none" x="0" y="0" width="600" height="250"/><rect fill="#FFFFFF" stroke="none" x="38" y="27" width="557" height="199"/><rect fill="#ffffff" stroke="none" x="38" y="27" width="557" height="199"/><g><rect fill="none" stroke="#e5e5e5" x="38" y="27" width="557" height="199" stroke-linejoin="bevel" stroke-miterlimit="10"/></g><g clip-path="url(#gFhySQvvfNNx)"><g><g/><g><path fill="none" stroke="#e5e5e5" paint-order="fill stroke markers" d=" M 38 187 L 595 187" stroke-linejoin="bevel" stroke-miterlimit="10"/><path fill="none" stroke="#e5e5e5" paint-order="fill stroke markers" d=" M 38 148 L 595 148" stroke-linejoin="bevel" stroke-miterlimit="10"/><path fill="none" stroke="#e5e5e5" paint-order="fill stroke markers" d=" M 38 109 L 595 109" stroke-linejoin="bevel" stroke-miterlimit="10"/><path fill="none" stroke="#e5e5e5" paint-order="fill stroke markers" d=" M 38 70 L 595 70" stroke-linejoin="bevel" stroke-miterlimit="10"/><path fill="none" stroke="#e5e5e5" paint-order="fill stroke markers" d=" M 38 30 L 595 30" stroke-linejoin="bevel" stroke-miterlimit="10"/></g><g><path fill="none" stroke="none"/><rect fill="firebrick" stroke="none" x="41.09444444444445" y="225.60890670754475" width="55.69999999999999" height="0.3910932924552526"/><path fill="none" stroke="firebrick" paint-order="fill stroke markers" d=" M 41.09444444444445 225.60890670754475 L 96.79444444444444 225.60890670754475 L 96.79444444444444 226 L 41.09444444444445 226 L 41.09444444444445 225.60890670754475 Z" stroke-linejoin="bevel" stroke-miterlimit="10"/><rect fill="firebrick" stroke="none" x="102.98333333333332" y="222.4019417094118" width="55.69999999999999" height="3.598058290588199"/><path fill="none" stroke="firebrick" paint-order="fill stroke markers" d=" M 102.98333333333332 222.4019417094118 L 158.6833333333333 222.4019417094118 L 158.6833333333333 226 L 102.98333333333332 226 L 102.98333333333332 222.4019417094118 Z" stroke-linejoin="bevel" stroke-miterlimit="10"/><rect fill="firebrick" stroke="none" x="164.8722222222222" y="215.36226244521745" width="55.700000000000045" height="10.637737554782547"/><path fill="none" stroke="firebrick" paint-order="fill stroke markers" d=" M 164.8722222222222 215.36226244521745 L 220.57222222222225 215.36226244521745 L 220.57222222222225 226 L 164.8722222222222 226 L 164.8722222222222 215.36226244521745 Z" stroke-linejoin="bevel" stroke-miterlimit="10"/><rect fill="firebrick" stroke="none" x="226.76111111111106" y="205.03739952439912" width="55.700000000000045" height="20.96260047560088"/><path fill="none" stroke="firebrick" paint-order="fill stroke markers" d=" M 226.76111111111106 205.03739952439912 L 282.4611111111111 205.03739952439912 L 282.4611111111111 226 L 226.76111111111106 226 L 226.76111111111106 205.03739952439912 Z" stroke-linejoin="bevel" stroke-miterlimit="10"/><rect fill="firebrick" stroke="none" x="288.65" y="192.60063282432247" width="55.700000000000045" height="33.399367175677526"/><path fill="none" stroke="firebrick" paint-order="fill stroke markers" d=" M 288.65 192.60063282432247 L 344.35 192.60063282432247 L 344.35 226 L 288.65 226 L 288.65 192.60063282432247 Z" stroke-linejoin="bevel" stroke-miterlimit="10"/><rect fill="firebrick" stroke="none" x="350.53888888888883" y="166.71025686378556" width="55.700000000000045" height="59.28974313621444"/><path fill="none" stroke="firebrick" paint-order="fill stroke markers" d=" M 350.53888888888883 166.71025686378556 L 406.2388888888889 166.71025686378556 L 406.2388888888889 226 L 350.53888888888883 226 L 350.53888888888883 166.71025686378556 Z" stroke-linejoin="bevel" stroke-miterlimit="10"/><rect fill="firebrick" stroke="none" x="412.42777777777775" y="115.47703555214905" width="55.700000000000045" height="110.52296444785095"/><path fill="none" stroke="firebrick" paint-order="fill stroke markers" d=" M 412.42777777777775 115.47703555214905 L 468.1277777777778 115.47703555214905 L 468.1277777777778 226 L 412.42777777777775 226 L 412.42777777777775 115.47703555214905 Z" stroke-linejoin="bevel" stroke-miterlimit="10"/><rect fill="firebrick" stroke="none" x="474.3166666666666" y="36.47619047619048" width="55.700000000000045" height="189.52380952380952"/><path fill="none" stroke="firebrick" paint-order="fill stroke markers" d=" M 474.3166666666666 36.47619047619048 L 530.0166666666667 36.47619047619048 L 530.0166666666667 226 L 474.3166666666666 226 L 474.3166666666666 36.47619047619048 Z" stroke-linejoin="bevel" stroke-miterlimit="10"/><rect fill="firebrick" stroke="none" x="536.2055555555555" y="159.59235894110017" width="55.700000000000045" height="66.40764105889983"/><path fill="none" stroke="firebrick" paint-order="fill stroke markers" d=" M 536.2055555555555 159.59235894110017 L 591.9055555555556 159.59235894110017 L 591.9055555555556 226 L 536.2055555555555 226 L 536.2055555555555 159.59235894110017 Z" stroke-linejoin="bevel" stroke-miterlimit="10"/></g></g></g><g clip-path="url(#FRTNPCGBuPgr)"><g/></g><g><g fill="#444444"><path fill="none" stroke="black" paint-order="fill stroke markers" d=" M 38 226 L 595 226" stroke-linejoin="bevel" stroke-miterlimit="10"/><path fill="none" stroke="black" paint-order="fill stroke markers" d=" M 69 232 L 69 224" stroke-linejoin="bevel" stroke-miterlimit="10"/><path fill="none" stroke="black" paint-order="fill stroke markers" d=" M 131 232 L 131 224" stroke-linejoin="bevel" stroke-miterlimit="10"/><path fill="none" stroke="black" paint-order="fill stroke markers" d=" M 193 232 L 193 224" stroke-linejoin="bevel" stroke-miterlimit="10"/><path fill="none" stroke="black" paint-order="fill stroke markers" d=" M 255 232 L 255 224" stroke-linejoin="bevel" stroke-miterlimit="10"/><path fill="none" stroke="black" paint-order="fill stroke markers" d=" M 317 232 L 317 224" stroke-linejoin="bevel" stroke-miterlimit="10"/><path fill="none" stroke="black" paint-order="fill stroke markers" d=" M 378 232 L 378 224" stroke-linejoin="bevel" stroke-miterlimit="10"/><path fill="none" stroke="black" paint-order="fill stroke markers" d=" M 440 232 L 440 224" stroke-linejoin="bevel" stroke-miterlimit="10"/><path fill="none" stroke="black" paint-order="fill stroke markers" d=" M 502 232 L 502 224" stroke-linejoin="bevel" stroke-miterlimit="10"/><path fill="" stroke="black" paint-order="fill stroke markers" d=" M 564 232 L 564 224" stroke-linejoin="bevel" stroke-miterlimit="10"/><g transform="translate(69,237) rotate(0,0,0)"><text fill="" stroke="none" font-family="helvetica" font-size="8pt" font-style="normal" font-weight="normal" text-decoration="normal" x="0" y="0" text-anchor="middle" dominant-baseline="hanging">1.0</text><g transform="rotate(0,0,0) translate(-69,-237) translate(131,237) rotate(0,0,0)"><text fill="" stroke="none" font-family="helvetica" font-size="8pt" font-style="normal" font-weight="normal" text-decoration="normal" x="0" y="0" text-anchor="middle" dominant-baseline="hanging">1.5</text><g transform="rotate(0,0,0) translate(-131,-237) translate(193,237) rotate(0,0,0)"><text fill="" stroke="none" font-family="helvetica" font-size="8pt" font-style="normal" font-weight="normal" text-decoration="normal" x="0" y="0" text-anchor="middle" dominant-baseline="hanging">2.0</text><g transform="rotate(0,0,0) translate(-193,-237) translate(255,237) rotate(0,0,0)"><text fill="" stroke="none" font-family="helvetica" font-size="8pt" font-style="normal" font-weight="normal" text-decoration="normal" x="0" y="0" text-anchor="middle" dominant-baseline="hanging">2.5</text><g transform="rotate(0,0,0) translate(-255,-237) translate(317,237) rotate(0,0,0)"><text fill="" stroke="none" font-family="helvetica" font-size="8pt" font-style="normal" font-weight="normal" text-decoration="normal" x="0" y="0" text-anchor="middle" dominant-baseline="hanging">3.0</text><g transform="rotate(0,0,0) translate(-317,-237) translate(378,237) rotate(0,0,0)"><text fill="" stroke="none" font-family="helvetica" font-size="8pt" font-style="normal" font-weight="normal" text-decoration="normal" x="0" y="0" text-anchor="middle" dominant-baseline="hanging">3.5</text><g transform="rotate(0,0,0) translate(-378,-237) translate(440,237) rotate(0,0,0)"><text fill="" stroke="none" font-family="helvetica" font-size="8pt" font-style="normal" font-weight="normal" text-decoration="normal" x="0" y="0" text-anchor="middle" dominant-baseline="hanging">4.0</text><g transform="rotate(0,0,0) translate(-440,-237) translate(502,237) rotate(0,0,0)"><text fill="" stroke="none" font-family="helvetica" font-size="8pt" font-style="normal" font-weight="normal" text-decoration="normal" x="0" y="0" text-anchor="middle" dominant-baseline="hanging">4.5</text><g transform="rotate(0,0,0) translate(-502,-237) translate(564,237) rotate(0,0,0)"><text fill="" stroke="none" font-family="helvetica" font-size="8pt" font-style="normal" font-weight="normal" text-decoration="normal" x="0" y="0" text-anchor="middle" dominant-baseline="hanging">5.0</text><g transform="rotate(0,0,0) translate(-564,-237)"/></g></g></g></g></g></g></g></g></g></g><g fill="#444444"><path fill="none" stroke="black" paint-order="fill stroke markers" d=" M 38 226 L 38 27" stroke-linejoin="bevel" stroke-miterlimit="10"/><path fill="none" stroke="black" paint-order="fill stroke markers" d=" M 32 226 L 40 226" stroke-linejoin="bevel" stroke-miterlimit="10"/><path fill="none" stroke="black" paint-order="fill stroke markers" d=" M 32 187 L 40 187" stroke-linejoin="bevel" stroke-miterlimit="10"/><path fill="none" stroke="black" paint-order="fill stroke markers" d=" M 32 148 L 40 148" stroke-linejoin="bevel" stroke-miterlimit="10"/><path fill="none" stroke="black" paint-order="fill stroke markers" d=" M 32 109 L 40 109" stroke-linejoin="bevel" stroke-miterlimit="10"/><path fill="none" stroke="black" paint-order="fill stroke markers" d=" M 32 70 L 40 70" stroke-linejoin="bevel" stroke-miterlimit="10"/><path fill="none" stroke="black" paint-order="fill stroke markers" d=" M 32 30 L 40 30" stroke-linejoin="bevel" stroke-miterlimit="10"/><path fill="none" stroke="black" paint-order="fill stroke markers" d=" M 34 226 L 38 226" stroke-linejoin="bevel" stroke-miterlimit="10"/><path fill="none" stroke="black" paint-order="fill stroke markers" d=" M 34 218 L 38 218" stroke-linejoin="bevel" stroke-miterlimit="10"/><path fill="none" stroke="black" paint-order="fill stroke markers" d=" M 34 210 L 38 210" stroke-linejoin="bevel" stroke-miterlimit="10"/><path fill="none" stroke="black" paint-order="fill stroke markers" d=" M 34 203 L 38 203" stroke-linejoin="bevel" stroke-miterlimit="10"/><path fill="none" stroke="black" paint-order="fill stroke markers" d=" M 34 195 L 38 195" stroke-linejoin="bevel" stroke-miterlimit="10"/><path fill="none" stroke="black" paint-order="fill stroke markers" d=" M 34 187 L 38 187" stroke-linejoin="bevel" stroke-miterlimit="10"/><path fill="none" stroke="black" paint-order="fill stroke markers" d=" M 34 179 L 38 179" stroke-linejoin="bevel" stroke-miterlimit="10"/><path fill="none" stroke="black" paint-order="fill stroke markers" d=" M 34 171 L 38 171" stroke-linejoin="bevel" stroke-miterlimit="10"/><path fill="none" stroke="black" paint-order="fill stroke markers" d=" M 34 163 L 38 163" stroke-linejoin="bevel" stroke-miterlimit="10"/><path fill="none" stroke="black" paint-order="fill stroke markers" d=" M 34 156 L 38 156" stroke-linejoin="bevel" stroke-miterlimit="10"/><path fill="none" stroke="black" paint-order="fill stroke markers" d=" M 34 148 L 38 148" stroke-linejoin="bevel" stroke-miterlimit="10"/><path fill="none" stroke="black" paint-order="fill stroke markers" d=" M 34 140 L 38 140" stroke-linejoin="bevel" stroke-miterlimit="10"/><path fill="none" stroke="black" paint-order="fill stroke markers" d=" M 34 132 L 38 132" stroke-linejoin="bevel" stroke-miterlimit="10"/><path fill="none" stroke="black" paint-order="fill stroke markers" d=" M 34 124 L 38 124" stroke-linejoin="bevel" stroke-miterlimit="10"/><path fill="none" stroke="black" paint-order="fill stroke markers" d=" M 34 116 L 38 116" stroke-linejoin="bevel" stroke-miterlimit="10"/><path fill="none" stroke="black" paint-order="fill stroke markers" d=" M 34 109 L 38 109" stroke-linejoin="bevel" stroke-miterlimit="10"/><path fill="none" stroke="black" paint-order="fill stroke markers" d=" M 34 101 L 38 101" stroke-linejoin="bevel" stroke-miterlimit="10"/><path fill="none" stroke="black" paint-order="fill stroke markers" d=" M 34 93 L 38 93" stroke-linejoin="bevel" stroke-miterlimit="10"/><path fill="none" stroke="black" paint-order="fill stroke markers" d=" M 34 85 L 38 85" stroke-linejoin="bevel" stroke-miterlimit="10"/><path fill="none" stroke="black" paint-order="fill stroke markers" d=" M 34 77 L 38 77" stroke-linejoin="bevel" stroke-miterlimit="10"/><path fill="none" stroke="black" paint-order="fill stroke markers" d=" M 34 70 L 38 70" stroke-linejoin="bevel" stroke-miterlimit="10"/><path fill="none" stroke="black" paint-order="fill stroke markers" d=" M 34 62 L 38 62" stroke-linejoin="bevel" stroke-miterlimit="10"/><path fill="none" stroke="black" paint-order="fill stroke markers" d=" M 34 54 L 38 54" stroke-linejoin="bevel" stroke-miterlimit="10"/><path fill="none" stroke="black" paint-order="fill stroke markers" d=" M 34 46 L 38 46" stroke-linejoin="bevel" stroke-miterlimit="10"/><path fill="none" stroke="black" paint-order="fill stroke markers" d=" M 34 38 L 38 38" stroke-linejoin="bevel" stroke-miterlimit="10"/><path fill="" stroke="black" paint-order="fill stroke markers" d=" M 34 30 L 38 30" stroke-linejoin="bevel" stroke-miterlimit="10"/><g transform="translate(27,226) rotate(0,0,0)"><text fill="" stroke="none" font-family="helvetica" font-size="8pt" font-style="normal" font-weight="normal" text-decoration="normal" x="0" y="0" text-anchor="end" dominant-baseline="central">0</text><g transform="rotate(0,0,0) translate(-27,-226) translate(27,187) rotate(0,0,0)"><text fill="" stroke="none" font-family="helvetica" font-size="8pt" font-style="normal" font-weight="normal" text-decoration="normal" x="0" y="0" text-anchor="end" dominant-baseline="central">500</text><g transform="rotate(0,0,0) translate(-27,-187) translate(27,148) rotate(0,0,0)"><text fill="" stroke="none" font-family="helvetica" font-size="8pt" font-style="normal" font-weight="normal" text-decoration="normal" x="0" y="0" text-anchor="end" dominant-baseline="central">1000</text><g transform="rotate(0,0,0) translate(-27,-148) translate(27,109) rotate(0,0,0)"><text fill="" stroke="none" font-family="helvetica" font-size="8pt" font-style="normal" font-weight="normal" text-decoration="normal" x="0" y="0" text-anchor="end" dominant-baseline="central">1500</text><g transform="rotate(0,0,0) translate(-27,-109) translate(27,70) rotate(0,0,0)"><text fill="" stroke="none" font-family="helvetica" font-size="8pt" font-style="normal" font-weight="normal" text-decoration="normal" x="0" y="0" text-anchor="end" dominant-baseline="central">2000</text><g transform="rotate(0,0,0) translate(-27,-70) translate(27,30) rotate(0,0,0)"><text fill="" stroke="none" font-family="helvetica" font-size="8pt" font-style="normal" font-weight="normal" text-decoration="normal" x="0" y="0" text-anchor="end" dominant-baseline="central">2500</text><g transform="rotate(0,0,0) translate(-27,-30)"/></g></g></g></g></g></g></g><g fill="#444444"><path fill="" stroke="none" d=""/><g transform="translate(38,22)"><path fill="none" stroke="none"/><text fill="" stroke="none" font-family="helvetica" font-size="10pt" font-style="normal" font-weight="bold" text-decoration="normal" x="0" y="0" text-anchor="start" dominant-baseline="text-after-edge">Average User Rating VS Free</text></g></g></g></g></g></svg>