<svg version="1.1" xmlns="http://www.w3.org/2000/svg" xmlns:xlink="http://www.w3.org/1999/xlink" width="750" height="350" style="width: 750px; height: 350px;"><defs><clipPath id="geriierubVFz"><path fill="none" stroke="none" d=" M 28 27 L 745 27 L 745 326 L 28 326 L 28 27 Z"/></clipPath><clipPath id="QaLkTbtnmXys"><path fill="none" stroke="none" d=" M 28 27 L 745 27 L 745 326 L 28 326 L 28 27 Z"/></clipPath></defs><g><g transform="scale(1,1) translate(0.5,0.5)"><rect fill="#FFFFFF" stroke="none" x="0" y="0" width="750" height="350"/><rect fill="#ffffff" stroke="none" x="0" y="0" width="750" height="350"/><rect fill="#FFFFFF" stroke="none" x="28" y="27" width="717" height="299"/><rect fill="#ffffff" stroke="none" x="28" y="27" width="717" height="299"/><g><rect fill="none" stroke="#e5e5e5" x="28" y="27" width="717" height="299" stroke-linejoin="bevel" stroke-miterlimit="10"/></g><g clip-path="url(#geriierubVFz)"><g><g><path fill="none" stroke="#e5e5e5" paint-order="fill stroke markers" d=" M 207 326 L 207 27" stroke-linejoin="bevel" stroke-miterlimit="10"/><path fill="none" stroke="#e5e5e5" paint-order="fill stroke markers" d=" M 387 326 L 387 27" stroke-linejoin="bevel" stroke-miterlimit="10"/><path fill="none" stroke="#e5e5e5" paint-order="fill stroke markers" d=" M 566 326 L 566 27" stroke-linejoin="bevel" stroke-miterlimit="10"/></g><g><path fill="none" stroke="#e5e5e5" paint-order="fill stroke markers" d=" M 28 251 L 745 251" stroke-linejoin="bevel" stroke-miterlimit="10"/><path fill="none" stroke="#e5e5e5" paint-order="fill stroke markers" d=" M 28 177 L 745 177" stroke-linejoin="bevel" stroke-miterlimit="10"/><path fill="none" stroke="#e5e5e5" paint-order="fill stroke markers" d=" M 28 102 L 745 102" stroke-linejoin="bevel" stroke-miterlimit="10"/></g><g><path fill="none" stroke="none"/><path fill="#3182bd" stroke="white" paint-order="fill stroke markers" d=" M 529.9 176.5 A 143.39999999999998 143.39999999999998 0 0 0 365.4415468156592 34.65465622910662 L 386.5 176.5 Z" stroke-linejoin="bevel" stroke-miterlimit="10"/><path fill="#6baed6" stroke="white" paint-order="fill stroke markers" d=" M 365.4415468156592 34.65465622910662 A 143.39999999999998 143.39999999999998 0 0 0 252.8420767347831 228.45305138708773 L 386.5 176.5 Z" stroke-linejoin="bevel" stroke-miterlimit="10"/><path fill="#9ecae1" stroke="white" paint-order="fill stroke markers" d=" M 252.8420767347831 228.45305138708773 A 143.39999999999998 143.39999999999998 0 0 0 285.41695891240664 278.21420158701494 L 386.5 176.5 Z" stroke-linejoin="bevel" stroke-miterlimit="10"/><path fill="#c6dbef" stroke="white" paint-order="fill stroke markers" d=" M 285.41695891240664 278.21420158701494 A 143.39999999999998 143.39999999999998 0 0 0 305.457602711916 294.8033805172124 L 386.5 176.5 Z" stroke-linejoin="bevel" stroke-miterlimit="10"/><path fill="#e6550d" stroke="white" paint-order="fill stroke markers" d=" M 305.457602711916 294.8033805172124 A 143.39999999999998 143.39999999999998 0 0 0 314.7868985035793 300.6804778286992 L 386.5 176.5 Z" stroke-linejoin="bevel" stroke-miterlimit="10"/><path fill="#fd8d3c" stroke="white" paint-order="fill stroke markers" d=" M 314.7868985035793 300.6804778286992 A 143.39999999999998 143.39999999999998 0 0 0 428.6666840335882 313.56031795385394 L 386.5 176.5 Z" stroke-linejoin="bevel" stroke-miterlimit="10"/><path fill="#fdae6b" stroke="white" paint-order="fill stroke markers" d=" M 428.6666840335882 313.56031795385394 A 143.39999999999998 143.39999999999998 0 0 0 452.40031226856354 303.86054664968196 L 386.5 176.5 Z" stroke-linejoin="bevel" stroke-miterlimit="10"/><path fill="#fdd0a2" stroke="white" paint-order="fill stroke markers" d=" M 452.40031226856354 303.86054664968196 A 143.39999999999998 143.39999999999998 0 0 0 455.0461873981147 302.4562630169002 L 386.5 176.5 Z" stroke-linejoin="bevel" stroke-miterlimit="10"/><path fill="#31a354" stroke="white" paint-order="fill stroke markers" d=" M 455.0461873981147 302.4562630169002 A 143.39999999999998 143.39999999999998 0 0 0 464.41970968597695 296.88305047826736 L 386.5 176.5 Z" stroke-linejoin="bevel" stroke-miterlimit="10"/><path fill="#74c476" stroke="white" paint-order="fill stroke markers" d=" M 464.41970968597695 296.88305047826736 A 143.39999999999998 143.39999999999998 0 0 0 488.0327448716271 277.7653036278126 L 386.5 176.5 Z" stroke-linejoin="bevel" stroke-miterlimit="10"/><path fill="#a1d99b" stroke="white" paint-order="fill stroke markers" d=" M 488.0327448716271 277.7653036278126 A 143.39999999999998 143.39999999999998 0 0 0 494.97080225145623 270.2957624785122 L 386.5 176.5 Z" stroke-linejoin="bevel" stroke-miterlimit="10"/><path fill="#c7e9c0" stroke="white" paint-order="fill stroke markers" d=" M 494.97080225145623 270.2957624785122 A 143.39999999999998 143.39999999999998 0 0 0 513.2361678375293 243.59324676789464 L 386.5 176.5 Z" stroke-linejoin="bevel" stroke-miterlimit="10"/><path fill="#756bb1" stroke="white" paint-order="fill stroke markers" d=" M 513.2361678375293 243.59324676789464 A 143.39999999999998 143.39999999999998 0 0 0 514.1099179393804 241.9161206699435 L 386.5 176.5 Z" stroke-linejoin="bevel" stroke-miterlimit="10"/><path fill="#9e9ac8" stroke="white" paint-order="fill stroke markers" d=" M 514.1099179393804 241.9161206699435 A 143.39999999999998 143.39999999999998 0 0 0 520.9633137461876 226.3314886030339 L 386.5 176.5 Z" stroke-linejoin="bevel" stroke-miterlimit="10"/><path fill="#bcbddc" stroke="white" paint-order="fill stroke markers" d=" M 520.9633137461876 226.3314886030339 A 143.39999999999998 143.39999999999998 0 0 0 524.185075981419 216.57966881089305 L 386.5 176.5 Z" stroke-linejoin="bevel" stroke-miterlimit="10"/><path fill="#dadaeb" stroke="white" paint-order="fill stroke markers" d=" M 524.185075981419 216.57966881089305 A 143.39999999999998 143.39999999999998 0 0 0 527.1802807730959 204.29601772921612 L 386.5 176.5 Z" stroke-linejoin="bevel" stroke-miterlimit="10"/><path fill="#636363" stroke="white" paint-order="fill stroke markers" d=" M 527.1802807730959 204.29601772921612 A 143.39999999999998 143.39999999999998 0 0 0 528.9770334400921 192.74361234796285 L 386.5 176.5 Z" stroke-linejoin="bevel" stroke-miterlimit="10"/><path fill="#969696" stroke="white" paint-order="fill stroke markers" d=" M 528.9770334400921 192.74361234796285 A 143.39999999999998 143.39999999999998 0 0 0 529.301916921519 189.58329177002395 L 386.5 176.5 Z" stroke-linejoin="bevel" stroke-miterlimit="10"/><path fill="#bdbdbd" stroke="white" paint-order="fill stroke markers" d=" M 529.301916921519 189.58329177002395 A 143.39999999999998 143.39999999999998 0 0 0 529.452528385699 187.81965671457974 L 386.5 176.5 Z" stroke-linejoin="bevel" stroke-miterlimit="10"/><path fill="#d9d9d9" stroke="white" paint-order="fill stroke markers" d=" M 529.452528385699 187.81965671457974 A 143.39999999999998 143.39999999999998 0 0 0 529.7311666356629 183.45650085797007 L 386.5 176.5 Z" stroke-linejoin="bevel" stroke-miterlimit="10"/><path fill="#3182bd" stroke="white" paint-order="fill stroke markers" d=" M 529.7311666356629 183.45650085797007 A 143.39999999999998 143.39999999999998 0 0 0 529.8547978651563 180.10026791227352 L 386.5 176.5 Z" stroke-linejoin="bevel" stroke-miterlimit="10"/><path fill="#6baed6" stroke="white" paint-order="fill stroke markers" d=" M 529.8547978651563 180.10026791227352 A 143.39999999999998 143.39999999999998 0 0 0 529.8905185216032 178.14899912242277 L 386.5 176.5 Z" stroke-linejoin="bevel" stroke-miterlimit="10"/><path fill="#9ecae1" stroke="white" paint-order="fill stroke markers" d=" M 529.8905185216032 178.14899912242277 A 143.39999999999998 143.39999999999998 0 0 0 529.9 176.5 L 386.5 176.5 Z" stroke-linejoin="bevel" stroke-miterlimit="10"/></g></g></g><g clip-path="url(#QaLkTbtnmXys)"><g><g/><g><path fill="#ffffff" stroke="#e5e5e5" paint-order="fill stroke markers" d=" M 582.5 37 L 735 37 L 735 583 L 582.5 583 L 582.5 37 Z" fill-opacity="0.95" stroke-linejoin="bevel" stroke-miterlimit="10" stroke-opacity="0.5"/><text fill="#444444" stroke="none" font-family="helvetica" font-size="10pt" font-style="normal" font-weight="normal" text-decoration="normal" x="617.5" y="57" text-anchor="start" dominant-baseline="central">Games</text><rect fill="#3182bd" stroke="none" x="594.5" y="49" width="16" height="16"/><path fill="none" stroke="white" paint-order="fill stroke markers" d=" M 594.5 49 L 610.5 49 L 610.5 65 L 594.5 65 L 594.5 49 Z" stroke-linejoin="bevel" stroke-miterlimit="10"/><text fill="#444444" stroke="none" font-family="helvetica" font-size="10pt" font-style="normal" font-weight="normal" text-decoration="normal" x="617.5" y="80" text-anchor="start" dominant-baseline="central"> Strategy</text><rect fill="#6baed6" stroke="none" x="594.5" y="72" width="16" height="16"/><path fill="none" stroke="white" paint-order="fill stroke markers" d=" M 594.5 72 L 610.5 72 L 610.5 88 L 594.5 88 L 594.5 72 Z" stroke-linejoin="bevel" stroke-miterlimit="10"/><text fill="#444444" stroke="none" font-family="helvetica" font-size="10pt" font-style="normal" font-weight="normal" text-decoration="normal" x="617.5" y="103" text-anchor="start" dominant-baseline="central"> Puzzle</text><rect fill="#9ecae1" stroke="none" x="594.5" y="95" width="16" height="16"/><path fill="none" stroke="white" paint-order="fill stroke markers" d=" M 594.5 95 L 610.5 95 L 610.5 111 L 594.5 111 L 594.5 95 Z" stroke-linejoin="bevel" stroke-miterlimit="10"/><text fill="#444444" stroke="none" font-family="helvetica" font-size="10pt" font-style="normal" font-weight="normal" text-decoration="normal" x="617.5" y="126" text-anchor="start" dominant-baseline="central"> Board</text><rect fill="#c6dbef" stroke="none" x="594.5" y="118" width="16" height="16"/><path fill="none" stroke="white" paint-order="fill stroke markers" d=" M 594.5 118 L 610.5 118 L 610.5 134 L 594.5 134 L 594.5 118 Z" stroke-linejoin="bevel" stroke-miterlimit="10"/><text fill="#444444" stroke="none" font-family="helvetica" font-size="10pt" font-style="normal" font-weight="normal" text-decoration="normal" x="617.5" y="149" text-anchor="start" dominant-baseline="central"> Education</text><rect fill="#e6550d" stroke="none" x="594.5" y="141" width="16" height="16"/><path fill="none" stroke="white" paint-order="fill stroke markers" d=" M 594.5 141 L 610.5 141 L 610.5 157 L 594.5 157 L 594.5 141 Z" stroke-linejoin="bevel" stroke-miterlimit="10"/><text fill="#444444" stroke="none" font-family="helvetica" font-size="10pt" font-style="normal" font-weight="normal" text-decoration="normal" x="617.5" y="172" text-anchor="start" dominant-baseline="central"> Entertainment</text><rect fill="#fd8d3c" stroke="none" x="594.5" y="164" width="16" height="16"/><path fill="none" stroke="white" paint-order="fill stroke markers" d=" M 594.5 164 L 610.5 164 L 610.5 180 L 594.5 180 L 594.5 164 Z" stroke-linejoin="bevel" stroke-miterlimit="10"/><text fill="#444444" stroke="none" font-family="helvetica" font-size="10pt" font-style="normal" font-weight="normal" text-decoration="normal" x="617.5" y="195" text-anchor="start" dominant-baseline="central"> Casual</text><rect fill="#fdae6b" stroke="none" x="594.5" y="187" width="16" height="16"/><path fill="none" stroke="white" paint-order="fill stroke markers" d=" M 594.5 187 L 610.5 187 L 610.5 203 L 594.5 203 L 594.5 187 Z" stroke-linejoin="bevel" stroke-miterlimit="10"/><text fill="#444444" stroke="none" font-family="helvetica" font-size="10pt" font-style="normal" font-weight="normal" text-decoration="normal" x="617.5" y="218" text-anchor="start" dominant-baseline="central">Entertainment</text><rect fill="#fdd0a2" stroke="none" x="594.5" y="210" width="16" height="16"/><path fill="none" stroke="white" paint-order="fill stroke markers" d=" M 594.5 210 L 610.5 210 L 610.5 226 L 594.5 226 L 594.5 210 Z" stroke-linejoin="bevel" stroke-miterlimit="10"/><text fill="#444444" stroke="none" font-family="helvetica" font-size="10pt" font-style="normal" font-weight="normal" text-decoration="normal" x="617.5" y="241" text-anchor="start" dominant-baseline="central"> Games</text><rect fill="#31a354" stroke="none" x="594.5" y="233" width="16" height="16"/><path fill="none" stroke="white" paint-order="fill stroke markers" d=" M 594.5 233 L 610.5 233 L 610.5 249 L 594.5 249 L 594.5 233 Z" stroke-linejoin="bevel" stroke-miterlimit="10"/><text fill="#444444" stroke="none" font-family="helvetica" font-size="10pt" font-style="normal" font-weight="normal" text-decoration="normal" x="617.5" y="264" text-anchor="start" dominant-baseline="central"> Action</text><rect fill="#74c476" stroke="none" x="594.5" y="256" width="16" height="16"/><path fill="none" stroke="white" paint-order="fill stroke markers" d=" M 594.5 256 L 610.5 256 L 610.5 272 L 594.5 272 L 594.5 256 Z" stroke-linejoin="bevel" stroke-miterlimit="10"/><text fill="#444444" stroke="none" font-family="helvetica" font-size="10pt" font-style="normal" font-weight="normal" text-decoration="normal" x="617.5" y="287" text-anchor="start" dominant-baseline="central"> Card</text><rect fill="#a1d99b" stroke="none" x="594.5" y="279" width="16" height="16"/><path fill="none" stroke="white" paint-order="fill stroke markers" d=" M 594.5 279 L 610.5 279 L 610.5 295 L 594.5 295 L 594.5 279 Z" stroke-linejoin="bevel" stroke-miterlimit="10"/><text fill="#444444" stroke="none" font-family="helvetica" font-size="10pt" font-style="normal" font-weight="normal" text-decoration="normal" x="617.5" y="310" text-anchor="start" dominant-baseline="central"> Simulation</text><rect fill="#c7e9c0" stroke="none" x="594.5" y="302" width="16" height="16"/><path fill="none" stroke="white" paint-order="fill stroke markers" d=" M 594.5 302 L 610.5 302 L 610.5 318 L 594.5 318 L 594.5 302 Z" stroke-linejoin="bevel" stroke-miterlimit="10"/><text fill="#444444" stroke="none" font-family="helvetica" font-size="10pt" font-style="normal" font-weight="normal" text-decoration="normal" x="617.5" y="333" text-anchor="start" dominant-baseline="central"> Word</text><rect fill="#756bb1" stroke="none" x="594.5" y="325" width="16" height="16"/><path fill="none" stroke="white" paint-order="fill stroke markers" d=" M 594.5 325 L 610.5 325 L 610.5 341 L 594.5 341 L 594.5 325 Z" stroke-linejoin="bevel" stroke-miterlimit="10"/><text fill="#444444" stroke="none" font-family="helvetica" font-size="10pt" font-style="normal" font-weight="normal" text-decoration="normal" x="617.5" y="356" text-anchor="start" dominant-baseline="central"> Role Playing</text><rect fill="#9e9ac8" stroke="none" x="594.5" y="348" width="16" height="16"/><path fill="none" stroke="white" paint-order="fill stroke markers" d=" M 594.5 348 L 610.5 348 L 610.5 364 L 594.5 364 L 594.5 348 Z" stroke-linejoin="bevel" stroke-miterlimit="10"/><text fill="#444444" stroke="none" font-family="helvetica" font-size="10pt" font-style="normal" font-weight="normal" text-decoration="normal" x="617.5" y="379" text-anchor="start" dominant-baseline="central"> Sports</text><rect fill="#bcbddc" stroke="none" x="594.5" y="371" width="16" height="16"/><path fill="none" stroke="white" paint-order="fill stroke markers" d=" M 594.5 371 L 610.5 371 L 610.5 387 L 594.5 387 L 594.5 371 Z" stroke-linejoin="bevel" stroke-miterlimit="10"/><text fill="#444444" stroke="none" font-family="helvetica" font-size="10pt" font-style="normal" font-weight="normal" text-decoration="normal" x="617.5" y="402" text-anchor="start" dominant-baseline="central"> Adventure</text><rect fill="#dadaeb" stroke="none" x="594.5" y="394" width="16" height="16"/><path fill="none" stroke="white" paint-order="fill stroke markers" d=" M 594.5 394 L 610.5 394 L 610.5 410 L 594.5 410 L 594.5 394 Z" stroke-linejoin="bevel" stroke-miterlimit="10"/><text fill="#444444" stroke="none" font-family="helvetica" font-size="10pt" font-style="normal" font-weight="normal" text-decoration="normal" x="617.5" y="425" text-anchor="start" dominant-baseline="central"> Family</text><rect fill="#636363" stroke="none" x="594.5" y="417" width="16" height="16"/><path fill="none" stroke="white" paint-order="fill stroke markers" d=" M 594.5 417 L 610.5 417 L 610.5 433 L 594.5 433 L 594.5 417 Z" stroke-linejoin="bevel" stroke-miterlimit="10"/><text fill="#444444" stroke="none" font-family="helvetica" font-size="10pt" font-style="normal" font-weight="normal" text-decoration="normal" x="617.5" y="448" text-anchor="start" dominant-baseline="central"> Lifestyle</text><rect fill="#969696" stroke="none" x="594.5" y="440" width="16" height="16"/><path fill="none" stroke="white" paint-order="fill stroke markers" d=" M 594.5 440 L 610.5 440 L 610.5 456 L 594.5 456 L 594.5 440 Z" stroke-linejoin="bevel" stroke-miterlimit="10"/><text fill="#444444" stroke="none" font-family="helvetica" font-size="10pt" font-style="normal" font-weight="normal" text-decoration="normal" x="617.5" y="471" text-anchor="start" dominant-baseline="central"> Social Networking</text><rect fill="#bdbdbd" stroke="none" x="594.5" y="463" width="16" height="16"/><path fill="none" stroke="white" paint-order="fill stroke markers" d=" M 594.5 463 L 610.5 463 L 610.5 479 L 594.5 479 L 594.5 463 Z" stroke-linejoin="bevel" stroke-miterlimit="10"/><text fill="#444444" stroke="none" font-family="helvetica" font-size="10pt" font-style="normal" font-weight="normal" text-decoration="normal" x="617.5" y="494" text-anchor="start" dominant-baseline="central"> Trivia</text><rect fill="#d9d9d9" stroke="none" x="594.5" y="486" width="16" height="16"/><path fill="none" stroke="white" paint-order="fill stroke markers" d=" M 594.5 486 L 610.5 486 L 610.5 502 L 594.5 502 L 594.5 486 Z" stroke-linejoin="bevel" stroke-miterlimit="10"/><text fill="#444444" stroke="none" font-family="helvetica" font-size="10pt" font-style="normal" font-weight="normal" text-decoration="normal" x="617.5" y="517" text-anchor="start" dominant-baseline="central">Education</text><rect fill="#3182bd" stroke="none" x="594.5" y="509" width="16" height="16"/><path fill="none" stroke="white" paint-order="fill stroke markers" d=" M 594.5 509 L 610.5 509 L 610.5 525 L 594.5 525 L 594.5 509 Z" stroke-linejoin="bevel" stroke-miterlimit="10"/><text fill="#444444" stroke="none" font-family="helvetica" font-size="10pt" font-style="normal" font-weight="normal" text-decoration="normal" x="617.5" y="540" text-anchor="start" dominant-baseline="central"> Racing</text><rect fill="#6baed6" stroke="none" x="594.5" y="532" width="16" height="16"/><path fill="none" stroke="white" paint-order="fill stroke markers" d=" M 594.5 532 L 610.5 532 L 610.5 548 L 594.5 548 L 594.5 532 Z" stroke-linejoin="bevel" stroke-miterlimit="10"/><text fill="#444444" stroke="none" font-family="helvetica" font-size="10pt" font-style="normal" font-weight="normal" text-decoration="normal" x="617.5" y="563" text-anchor="start" dominant-baseline="central"> Music</text><rect fill="#9ecae1" stroke="none" x="594.5" y="555" width="16" height="16"/><path fill="none" stroke="white" paint-order="fill stroke markers" d=" M 594.5 555 L 610.5 555 L 610.5 571 L 594.5 571 L 594.5 555 Z" stroke-linejoin="bevel" stroke-miterlimit="10"/></g></g></g><g><g fill="#444444"><path fill="none" stroke="black" paint-order="fill stroke markers" d=" M 28 326 L 745 326" stroke-linejoin="bevel" stroke-miterlimit="10"/><path fill="none" stroke="black" paint-order="fill stroke markers" d=" M 28 332 L 28 324" stroke-linejoin="bevel" stroke-miterlimit="10"/><path fill="none" stroke="black" paint-order="fill stroke markers" d=" M 207 332 L 207 324" stroke-linejoin="bevel" stroke-miterlimit="10"/><path fill="none" stroke="black" paint-order="fill stroke markers" d=" M 387 332 L 387 324" stroke-linejoin="bevel" stroke-miterlimit="10"/><path fill="none" stroke="black" paint-order="fill stroke markers" d=" M 566 332 L 566 324" stroke-linejoin="bevel" stroke-miterlimit="10"/><path fill="none" stroke="black" paint-order="fill stroke markers" d=" M 745 332 L 745 324" stroke-linejoin="bevel" stroke-miterlimit="10"/><path fill="none" stroke="black" paint-order="fill stroke markers" d=" M 28 330 L 28 326" stroke-linejoin="bevel" stroke-miterlimit="10"/><path fill="none" stroke="black" paint-order="fill stroke markers" d=" M 64 330 L 64 326" stroke-linejoin="bevel" stroke-miterlimit="10"/><path fill="none" stroke="black" paint-order="fill stroke markers" d=" M 100 330 L 100 326" stroke-linejoin="bevel" stroke-miterlimit="10"/><path fill="none" stroke="black" paint-order="fill stroke markers" d=" M 136 330 L 136 326" stroke-linejoin="bevel" stroke-miterlimit="10"/><path fill="none" stroke="black" paint-order="fill stroke markers" d=" M 171 330 L 171 326" stroke-linejoin="bevel" stroke-miterlimit="10"/><path fill="none" stroke="black" paint-order="fill stroke markers" d=" M 207 330 L 207 326" stroke-linejoin="bevel" stroke-miterlimit="10"/><path fill="none" stroke="black" paint-order="fill stroke markers" d=" M 243 330 L 243 326" stroke-linejoin="bevel" stroke-miterlimit="10"/><path fill="none" stroke="black" paint-order="fill stroke markers" d=" M 279 330 L 279 326" stroke-linejoin="bevel" stroke-miterlimit="10"/><path fill="none" stroke="black" paint-order="fill stroke markers" d=" M 315 330 L 315 326" stroke-linejoin="bevel" stroke-miterlimit="10"/><path fill="none" stroke="black" paint-order="fill stroke markers" d=" M 351 330 L 351 326" stroke-linejoin="bevel" stroke-miterlimit="10"/><path fill="none" stroke="black" paint-order="fill stroke markers" d=" M 387 330 L 387 326" stroke-linejoin="bevel" stroke-miterlimit="10"/><path fill="none" stroke="black" paint-order="fill stroke markers" d=" M 422 330 L 422 326" stroke-linejoin="bevel" stroke-miterlimit="10"/><path fill="none" stroke="black" paint-order="fill stroke markers" d=" M 458 330 L 458 326" stroke-linejoin="bevel" stroke-miterlimit="10"/><path fill="none" stroke="black" paint-order="fill stroke markers" d=" M 494 330 L 494 326" stroke-linejoin="bevel" stroke-miterlimit="10"/><path fill="none" stroke="black" paint-order="fill stroke markers" d=" M 530 330 L 530 326" stroke-linejoin="bevel" stroke-miterlimit="10"/><path fill="none" stroke="black" paint-order="fill stroke markers" d=" M 566 330 L 566 326" stroke-linejoin="bevel" stroke-miterlimit="10"/><path fill="none" stroke="black" paint-order="fill stroke markers" d=" M 602 330 L 602 326" stroke-linejoin="bevel" stroke-miterlimit="10"/><path fill="none" stroke="black" paint-order="fill stroke markers" d=" M 637 330 L 637 326" stroke-linejoin="bevel" stroke-miterlimit="10"/><path fill="none" stroke="black" paint-order="fill stroke markers" d=" M 673 330 L 673 326" stroke-linejoin="bevel" stroke-miterlimit="10"/><path fill="none" stroke="black" paint-order="fill stroke markers" d=" M 709 330 L 709 326" stroke-linejoin="bevel" stroke-miterlimit="10"/><path fill="" stroke="black" paint-order="fill stroke markers" d=" M 745 330 L 745 326" stroke-linejoin="bevel" stroke-miterlimit="10"/><g transform="translate(28,337) rotate(0,0,0)"><text fill="" stroke="none" font-family="helvetica" font-size="8pt" font-style="normal" font-weight="normal" text-decoration="normal" x="0" y="0" text-anchor="middle" dominant-baseline="hanging">-1</text><g transform="rotate(0,0,0) translate(-28,-337) translate(207,337) rotate(0,0,0)"><text fill="" stroke="none" font-family="helvetica" font-size="8pt" font-style="normal" font-weight="normal" text-decoration="normal" x="0" y="0" text-anchor="middle" dominant-baseline="hanging">-0.5</text><g transform="rotate(0,0,0) translate(-207,-337) translate(387,337) rotate(0,0,0)"><text fill="" stroke="none" font-family="helvetica" font-size="8pt" font-style="normal" font-weight="normal" text-decoration="normal" x="0" y="0" text-anchor="middle" dominant-baseline="hanging">0</text><g transform="rotate(0,0,0) translate(-387,-337) translate(566,337) rotate(0,0,0)"><text fill="" stroke="none" font-family="helvetica" font-size="8pt" font-style="normal" font-weight="normal" text-decoration="normal" x="0" y="0" text-anchor="middle" dominant-baseline="hanging">0.5</text><g transform="rotate(0,0,0) translate(-566,-337) translate(745,337) rotate(0,0,0)"><text fill="" stroke="none" font-family="helvetica" font-size="8pt" font-style="normal" font-weight="normal" text-decoration="normal" x="0" y="0" text-anchor="middle" dominant-baseline="hanging">1</text><g transform="rotate(0,0,0) translate(-745,-337)"/></g></g></g></g></g></g><g fill="#444444"><path fill="none" stroke="black" paint-order="fill stroke markers" d=" M 28 326 L 28 27" stroke-linejoin="bevel" stroke-miterlimit="10"/><path fill="none" stroke="black" paint-order="fill stroke markers" d=" M 22 326 L 30 326" stroke-linejoin="bevel" stroke-miterlimit="10"/><path fill="none" stroke="black" paint-order="fill stroke markers" d=" M 22 251 L 30 251" stroke-linejoin="bevel" stroke-miterlimit="10"/><path fill="none" stroke="black" paint-order="fill stroke markers" d=" M 22 177 L 30 177" stroke-linejoin="bevel" stroke-miterlimit="10"/><path fill="none" stroke="black" paint-order="fill stroke markers" d=" M 22 102 L 30 102" stroke-linejoin="bevel" stroke-miterlimit="10"/><path fill="none" stroke="black" paint-order="fill stroke markers" d=" M 22 27 L 30 27" stroke-linejoin="bevel" stroke-miterlimit="10"/><path fill="none" stroke="black" paint-order="fill stroke markers" d=" M 24 326 L 28 326" stroke-linejoin="bevel" stroke-miterlimit="10"/><path fill="none" stroke="black" paint-order="fill stroke markers" d=" M 24 311 L 28 311" stroke-linejoin="bevel" stroke-miterlimit="10"/><path fill="none" stroke="black" paint-order="fill stroke markers" d=" M 24 296 L 28 296" stroke-linejoin="bevel" stroke-miterlimit="10"/><path fill="none" stroke="black" paint-order="fill stroke markers" d=" M 24 281 L 28 281" stroke-linejoin="bevel" stroke-miterlimit="10"/><path fill="none" stroke="black" paint-order="fill stroke markers" d=" M 24 266 L 28 266" stroke-linejoin="bevel" stroke-miterlimit="10"/><path fill="none" stroke="black" paint-order="fill stroke markers" d=" M 24 251 L 28 251" stroke-linejoin="bevel" stroke-miterlimit="10"/><path fill="none" stroke="black" paint-order="fill stroke markers" d=" M 24 236 L 28 236" stroke-linejoin="bevel" stroke-miterlimit="10"/><path fill="none" stroke="black" paint-order="fill stroke markers" d=" M 24 221 L 28 221" stroke-linejoin="bevel" stroke-miterlimit="10"/><path fill="none" stroke="black" paint-order="fill stroke markers" d=" M 24 206 L 28 206" stroke-linejoin="bevel" stroke-miterlimit="10"/><path fill="none" stroke="black" paint-order="fill stroke markers" d=" M 24 191 L 28 191" stroke-linejoin="bevel" stroke-miterlimit="10"/><path fill="none" stroke="black" paint-order="fill stroke markers" d=" M 24 177 L 28 177" stroke-linejoin="bevel" stroke-miterlimit="10"/><path fill="none" stroke="black" paint-order="fill stroke markers" d=" M 24 162 L 28 162" stroke-linejoin="bevel" stroke-miterlimit="10"/><path fill="none" stroke="black" paint-order="fill stroke markers" d=" M 24 147 L 28 147" stroke-linejoin="bevel" stroke-miterlimit="10"/><path fill="none" stroke="black" paint-order="fill stroke markers" d=" M 24 132 L 28 132" stroke-linejoin="bevel" stroke-miterlimit="10"/><path fill="none" stroke="black" paint-order="fill stroke markers" d=" M 24 117 L 28 117" stroke-linejoin="bevel" stroke-miterlimit="10"/><path fill="none" stroke="black" paint-order="fill stroke markers" d=" M 24 102 L 28 102" stroke-linejoin="bevel" stroke-miterlimit="10"/><path fill="none" stroke="black" paint-order="fill stroke markers" d=" M 24 87 L 28 87" stroke-linejoin="bevel" stroke-miterlimit="10"/><path fill="none" stroke="black" paint-order="fill stroke markers" d=" M 24 72 L 28 72" stroke-linejoin="bevel" stroke-miterlimit="10"/><path fill="none" stroke="black" paint-order="fill stroke markers" d=" M 24 57 L 28 57" stroke-linejoin="bevel" stroke-miterlimit="10"/><path fill="none" stroke="black" paint-order="fill stroke markers" d=" M 24 42 L 28 42" stroke-linejoin="bevel" stroke-miterlimit="10"/><path fill="" stroke="black" paint-order="fill stroke markers" d=" M 24 27 L 28 27" stroke-linejoin="bevel" stroke-miterlimit="10"/><g transform="translate(17,326) rotate(0,0,0)"><text fill="" stroke="none" font-family="helvetica" font-size="8pt" font-style="normal" font-weight="normal" text-decoration="normal" x="0" y="0" text-anchor="end" dominant-baseline="central">0</text><g transform="rotate(0,0,0) translate(-17,-326) translate(17,251) rotate(0,0,0)"><text fill="" stroke="none" font-family="helvetica" font-size="8pt" font-style="normal" font-weight="normal" text-decoration="normal" x="0" y="0" text-anchor="end" dominant-baseline="central">0.5</text><g transform="rotate(0,0,0) translate(-17,-251) translate(17,177) rotate(0,0,0)"><text fill="" stroke="none" font-family="helvetica" font-size="8pt" font-style="normal" font-weight="normal" text-decoration="normal" x="0" y="0" text-anchor="end" dominant-baseline="central">1</text><g transform="rotate(0,0,0) translate(-17,-177) translate(17,102) rotate(0,0,0)"><text fill="" stroke="none" font-family="helvetica" font-size="8pt" font-style="normal" font-weight="normal" text-decoration="normal" x="0" y="0" text-anchor="end" dominant-baseline="central">1.5</text><g transform="rotate(0,0,0) translate(-17,-102) translate(17,27) rotate(0,0,0)"><text fill="" stroke="none" font-family="helvetica" font-size="8pt" font-style="normal" font-weight="normal" text-decoration="normal" x="0" y="0" text-anchor="end" dominant-baseline="central">2</text><g transform="rotate(0,0,0) translate(-17,-27)"/></g></g></g></g></g></g><g fill="#444444"><path fill="" stroke="none" d=""/><g transform="translate(28,22)"><path fill="none" stroke="none"/><text fill="" stroke="none" font-family="helvetica" font-size="10pt" font-style="normal" font-weight="bold" text-decoration="normal" x="0" y="0" text-anchor="start" dominant-baseline="text-after-edge">Numbers of Different Genres</text></g></g></g></g></g></svg>