<svg version="1.1" xmlns="http://www.w3.org/2000/svg" xmlns:xlink="http://www.w3.org/1999/xlink" width="600" height="250" style="width: 600px; height: 250px;"><defs><clipPath id="MUtWeiwxLuwT"><path fill="none" stroke="none" d=" M 38 27 L 595 27 L 595 226 L 38 226 L 38 27 Z"/></clipPath><clipPath id="fCQRvDIzMlOb"><path fill="none" stroke="none" d=" M 38 27 L 595 27 L 595 226 L 38 226 L 38 27 Z"/></clipPath></defs><g><g transform="scale(1,1) translate(0.5,0.5)"><rect fill="#FFFFFF" stroke="none" x="0" y="0" width="600" height="250"/><rect fill="#ffffff" stroke="none" x="0" y="0" width="600" height="250"/><rect fill="#FFFFFF" stroke="none" x="38" y="27" width="557" height="199"/><rect fill="#ffffff" stroke="none" x="38" y="27" width="557" height="199"/><g><rect fill="none" stroke="#e5e5e5" x="38" y="27" width="557" height="199" stroke-linejoin="bevel" stroke-miterlimit="10"/></g><g clip-path="url(#MUtWeiwxLuwT)"><g><g/><g><path fill="none" stroke="#e5e5e5" paint-order="fill stroke markers" d=" M 38 193 L 595 193" stroke-linejoin="bevel" stroke-miterlimit="10"/><path fill="none" stroke="#e5e5e5" paint-order="fill stroke markers" d=" M 38 160 L 595 160" stroke-linejoin="bevel" stroke-miterlimit="10"/><path fill="none" stroke="#e5e5e5" paint-order="fill stroke markers" d=" M 38 127 L 595 127" stroke-linejoin="bevel" stroke-miterlimit="10"/><path fill="none" stroke="#e5e5e5" paint-order="fill stroke markers" d=" M 38 94 L 595 94" stroke-linejoin="bevel" stroke-miterlimit="10"/><path fill="none" stroke="#e5e5e5" paint-order="fill stroke markers" d=" M 38 60 L 595 60" stroke-linejoin="bevel" stroke-miterlimit="10"/><path fill="none" stroke="#e5e5e5" paint-order="fill stroke markers" d=" M 38 27 L 595 27" stroke-linejoin="bevel" stroke-miterlimit="10"/></g><g><path fill="none" stroke="none"/><rect fill="#1f77b4" stroke="none" x="41.09444444444445" y="225.07258534312012" width="55.69999999999999" height="0.9274146568798756"/><path fill="none" stroke="#1f77b4" paint-order="fill stroke markers" d=" M 41.09444444444445 225.07258534312012 L 96.79444444444444 225.07258534312012 L 96.79444444444444 226 L 41.09444444444445 226 L 41.09444444444445 225.07258534312012 Z" stroke-linejoin="bevel" stroke-miterlimit="10"/><rect fill="#1f77b4" stroke="none" x="102.98333333333332" y="222.0253657562291" width="55.69999999999999" height="3.9746342437709075"/><path fill="none" stroke="#1f77b4" paint-order="fill stroke markers" d=" M 102.98333333333332 222.0253657562291 L 158.6833333333333 222.0253657562291 L 158.6833333333333 226 L 102.98333333333332 226 L 102.98333333333332 222.0253657562291 Z" stroke-linejoin="bevel" stroke-miterlimit="10"/><rect fill="#1f77b4" stroke="none" x="164.8722222222222" y="215.53346315806994" width="55.700000000000045" height="10.466536841930065"/><path fill="none" stroke="#1f77b4" paint-order="fill stroke markers" d=" M 164.8722222222222 215.53346315806994 L 220.57222222222225 215.53346315806994 L 220.57222222222225 226 L 164.8722222222222 226 L 164.8722222222222 215.53346315806994 Z" stroke-linejoin="bevel" stroke-miterlimit="10"/><rect fill="#1f77b4" stroke="none" x="226.76111111111106" y="205.00068241207703" width="55.700000000000045" height="20.999317587922974"/><path fill="none" stroke="#1f77b4" paint-order="fill stroke markers" d=" M 226.76111111111106 205.00068241207703 L 282.4611111111111 205.00068241207703 L 282.4611111111111 226 L 226.76111111111106 226 L 226.76111111111106 205.00068241207703 Z" stroke-linejoin="bevel" stroke-miterlimit="10"/><rect fill="#1f77b4" stroke="none" x="288.65" y="191.95063331169587" width="55.700000000000045" height="34.04936668830413"/><path fill="none" stroke="#1f77b4" paint-order="fill stroke markers" d=" M 288.65 191.95063331169587 L 344.35 191.95063331169587 L 344.35 226 L 288.65 226 L 288.65 191.95063331169587 Z" stroke-linejoin="bevel" stroke-miterlimit="10"/><rect fill="#1f77b4" stroke="none" x="350.53888888888883" y="164.72438874186514" width="55.700000000000045" height="61.27561125813486"/><path fill="none" stroke="#1f77b4" paint-order="fill stroke markers" d=" M 350.53888888888883 164.72438874186514 L 406.2388888888889 164.72438874186514 L 406.2388888888889 226 L 350.53888888888883 226 L 350.53888888888883 164.72438874186514 Z" stroke-linejoin="bevel" stroke-miterlimit="10"/><rect fill="#1f77b4" stroke="none" x="412.42777777777775" y="111.92799720377491" width="55.700000000000045" height="114.07200279622509"/><path fill="none" stroke="#1f77b4" paint-order="fill stroke markers" d=" M 412.42777777777775 111.92799720377491 L 468.1277777777778 111.92799720377491 L 468.1277777777778 226 L 412.42777777777775 226 L 412.42777777777775 111.92799720377491 Z" stroke-linejoin="bevel" stroke-miterlimit="10"/><rect fill="#1f77b4" stroke="none" x="474.3166666666666" y="36.47619047619048" width="55.700000000000045" height="189.52380952380952"/><path fill="none" stroke="#1f77b4" paint-order="fill stroke markers" d=" M 474.3166666666666 36.47619047619048 L 530.0166666666667 36.47619047619048 L 530.0166666666667 226 L 474.3166666666666 226 L 474.3166666666666 36.47619047619048 Z" stroke-linejoin="bevel" stroke-miterlimit="10"/><rect fill="#1f77b4" stroke="none" x="536.2055555555555" y="160.41853497777998" width="55.700000000000045" height="65.58146502222002"/><path fill="none" stroke="#1f77b4" paint-order="fill stroke markers" d=" M 536.2055555555555 160.41853497777998 L 591.9055555555556 160.41853497777998 L 591.9055555555556 226 L 536.2055555555555 226 L 536.2055555555555 160.41853497777998 Z" stroke-linejoin="bevel" stroke-miterlimit="10"/></g></g></g><g clip-path="url(#fCQRvDIzMlOb)"><g/></g><g><g fill="#444444"><path fill="none" stroke="black" paint-order="fill stroke markers" d=" M 38 226 L 595 226" stroke-linejoin="bevel" stroke-miterlimit="10"/><path fill="none" stroke="black" paint-order="fill stroke markers" d=" M 69 232 L 69 224" stroke-linejoin="bevel" stroke-miterlimit="10"/><path fill="none" stroke="black" paint-order="fill stroke markers" d=" M 131 232 L 131 224" stroke-linejoin="bevel" stroke-miterlimit="10"/><path fill="none" stroke="black" paint-order="fill stroke markers" d=" M 193 232 L 193 224" stroke-linejoin="bevel" stroke-miterlimit="10"/><path fill="none" stroke="black" paint-order="fill stroke markers" d=" M 255 232 L 255 224" stroke-linejoin="bevel" stroke-miterlimit="10"/><path fill="none" stroke="black" paint-order="fill stroke markers" d=" M 317 232 L 317 224" stroke-linejoin="bevel" stroke-miterlimit="10"/><path fill="none" stroke="black" paint-order="fill stroke markers" d=" M 378 232 L 378 224" stroke-linejoin="bevel" stroke-miterlimit="10"/><path fill="none" stroke="black" paint-order="fill stroke markers" d=" M 440 232 L 440 224" stroke-linejoin="bevel" stroke-miterlimit="10"/><path fill="none" stroke="black" paint-order="fill stroke markers" d=" M 502 232 L 502 224" stroke-linejoin="bevel" stroke-miterlimit="10"/><path fill="" stroke="black" paint-order="fill stroke markers" d=" M 564 232 L 564 224" stroke-linejoin="bevel" stroke-miterlimit="10"/><g transform="translate(69,237) rotate(0,0,0)"><text fill="" stroke="none" font-family="helvetica" font-size="8pt" font-style="normal" font-weight="normal" text-decoration="normal" x="0" y="0" text-anchor="middle" dominant-baseline="hanging">1.0</text><g transform="rotate(0,0,0) translate(-69,-237) translate(131,237) rotate(0,0,0)"><text fill="" stroke="none" font-family="helvetica" font-size="8pt" font-style="normal" font-weight="normal" text-decoration="normal" x="0" y="0" text-anchor="middle" dominant-baseline="hanging">1.5</text><g transform="rotate(0,0,0) translate(-131,-237) translate(193,237) rotate(0,0,0)"><text fill="" stroke="none" font-family="helvetica" font-size="8pt" font-style="normal" font-weight="normal" text-decoration="normal" x="0" y="0" text-anchor="middle" dominant-baseline="hanging">2.0</text><g transform="rotate(0,0,0) translate(-193,-237) translate(255,237) rotate(0,0,0)"><text fill="" stroke="none" font-family="helvetica" font-size="8pt" font-style="normal" font-weight="normal" text-decoration="normal" x="0" y="0" text-anchor="middle" dominant-baseline="hanging">2.5</text><g transform="rotate(0,0,0) translate(-255,-237) translate(317,237) rotate(0,0,0)"><text fill="" stroke="none" font-family="helvetica" font-size="8pt" font-style="normal" font-weight="normal" text-decoration="normal" x="0" y="0" text-anchor="middle" dominant-baseline="hanging">3.0</text><g transform="rotate(0,0,0) translate(-317,-237) translate(378,237) rotate(0,0,0)"><text fill="" stroke="none" font-family="helvetica" font-size="8pt" font-style="normal" font-weight="normal" text-decoration="normal" x="0" y="0" text-anchor="middle" dominant-baseline="hanging">3.5</text><g transform="rotate(0,0,0) translate(-378,-237) translate(440,237) rotate(0,0,0)"><text fill="" stroke="none" font-family="helvetica" font-size="8pt" font-style="normal" font-weight="normal" text-decoration="normal" x="0" y="0" text-anchor="middle" dominant-baseline="hanging">4.0</text><g transform="rotate(0,0,0) translate(-440,-237) translate(502,237) rotate(0,0,0)"><text fill="" stroke="none" font-family="helvetica" font-size="8pt" font-style="normal" font-weight="normal" text-decoration="normal" x="0" y="0" text-anchor="middle" dominant-baseline="hanging">4.5</text><g transform="rotate(0,0,0) translate(-502,-237) translate(564,237) rotate(0,0,0)"><text fill="" stroke="none" font-family="helvetica" font-size="8pt" font-style="normal" font-weight="normal" text-decoration="normal" x="0" y="0" text-anchor="middle" dominant-baseline="hanging">5.0</text><g transform="rotate(0,0,0) translate(-564,-237)"/></g></g></g></g></g></g></g></g></g></g><g fill="#444444"><path fill="none" stroke="black" paint-order="fill stroke markers" d=" M 38 226 L 38 27" stroke-linejoin="bevel" stroke-miterlimit="10"/><path fill="none" stroke="black" paint-order="fill stroke markers" d=" M 32 226 L 40 226" stroke-linejoin="bevel" stroke-miterlimit="10"/><path fill="none" stroke="black" paint-order="fill stroke markers" d=" M 32 193 L 40 193" stroke-linejoin="bevel" stroke-miterlimit="10"/><path fill="none" stroke="black" paint-order="fill stroke markers" d=" M 32 160 L 40 160" stroke-linejoin="bevel" stroke-miterlimit="10"/><path fill="none" stroke="black" paint-order="fill stroke markers" d=" M 32 127 L 40 127" stroke-linejoin="bevel" stroke-miterlimit="10"/><path fill="none" stroke="black" paint-order="fill stroke markers" d=" M 32 94 L 40 94" stroke-linejoin="bevel" stroke-miterlimit="10"/><path fill="none" stroke="black" paint-order="fill stroke markers" d=" M 32 60 L 40 60" stroke-linejoin="bevel" stroke-miterlimit="10"/><path fill="none" stroke="black" paint-order="fill stroke markers" d=" M 32 27 L 40 27" stroke-linejoin="bevel" stroke-miterlimit="10"/><path fill="none" stroke="black" paint-order="fill stroke markers" d=" M 34 226 L 38 226" stroke-linejoin="bevel" stroke-miterlimit="10"/><path fill="none" stroke="black" paint-order="fill stroke markers" d=" M 34 219 L 38 219" stroke-linejoin="bevel" stroke-miterlimit="10"/><path fill="none" stroke="black" paint-order="fill stroke markers" d=" M 34 213 L 38 213" stroke-linejoin="bevel" stroke-miterlimit="10"/><path fill="none" stroke="black" paint-order="fill stroke markers" d=" M 34 206 L 38 206" stroke-linejoin="bevel" stroke-miterlimit="10"/><path fill="none" stroke="black" paint-order="fill stroke markers" d=" M 34 200 L 38 200" stroke-linejoin="bevel" stroke-miterlimit="10"/><path fill="none" stroke="black" paint-order="fill stroke markers" d=" M 34 193 L 38 193" stroke-linejoin="bevel" stroke-miterlimit="10"/><path fill="none" stroke="black" paint-order="fill stroke markers" d=" M 34 186 L 38 186" stroke-linejoin="bevel" stroke-miterlimit="10"/><path fill="none" stroke="black" paint-order="fill stroke markers" d=" M 34 180 L 38 180" stroke-linejoin="bevel" stroke-miterlimit="10"/><path fill="none" stroke="black" paint-order="fill stroke markers" d=" M 34 173 L 38 173" stroke-linejoin="bevel" stroke-miterlimit="10"/><path fill="none" stroke="black" paint-order="fill stroke markers" d=" M 34 166 L 38 166" stroke-linejoin="bevel" stroke-miterlimit="10"/><path fill="none" stroke="black" paint-order="fill stroke markers" d=" M 34 160 L 38 160" stroke-linejoin="bevel" stroke-miterlimit="10"/><path fill="none" stroke="black" paint-order="fill stroke markers" d=" M 34 153 L 38 153" stroke-linejoin="bevel" stroke-miterlimit="10"/><path fill="none" stroke="black" paint-order="fill stroke markers" d=" M 34 147 L 38 147" stroke-linejoin="bevel" stroke-miterlimit="10"/><path fill="none" stroke="black" paint-order="fill stroke markers" d=" M 34 140 L 38 140" stroke-linejoin="bevel" stroke-miterlimit="10"/><path fill="none" stroke="black" paint-order="fill stroke markers" d=" M 34 133 L 38 133" stroke-linejoin="bevel" stroke-miterlimit="10"/><path fill="none" stroke="black" paint-order="fill stroke markers" d=" M 34 127 L 38 127" stroke-linejoin="bevel" stroke-miterlimit="10"/><path fill="none" stroke="black" paint-order="fill stroke markers" d=" M 34 120 L 38 120" stroke-linejoin="bevel" stroke-miterlimit="10"/><path fill="none" stroke="black" paint-order="fill stroke markers" d=" M 34 113 L 38 113" stroke-linejoin="bevel" stroke-miterlimit="10"/><path fill="none" stroke="black" paint-order="fill stroke markers" d=" M 34 107 L 38 107" stroke-linejoin="bevel" stroke-miterlimit="10"/><path fill="none" stroke="black" paint-order="fill stroke markers" d=" M 34 100 L 38 100" stroke-linejoin="bevel" stroke-miterlimit="10"/><path fill="none" stroke="black" paint-order="fill stroke markers" d=" M 34 94 L 38 94" stroke-linejoin="bevel" stroke-miterlimit="10"/><path fill="none" stroke="black" paint-order="fill stroke markers" d=" M 34 87 L 38 87" stroke-linejoin="bevel" stroke-miterlimit="10"/><path fill="none" stroke="black" paint-order="fill stroke markers" d=" M 34 80 L 38 80" stroke-linejoin="bevel" stroke-miterlimit="10"/><path fill="none" stroke="black" paint-order="fill stroke markers" d=" M 34 74 L 38 74" stroke-linejoin="bevel" stroke-miterlimit="10"/><path fill="none" stroke="black" paint-order="fill stroke markers" d=" M 34 67 L 38 67" stroke-linejoin="bevel" stroke-miterlimit="10"/><path fill="none" stroke="black" paint-order="fill stroke markers" d=" M 34 60 L 38 60" stroke-linejoin="bevel" stroke-miterlimit="10"/><path fill="none" stroke="black" paint-order="fill stroke markers" d=" M 34 54 L 38 54" stroke-linejoin="bevel" stroke-miterlimit="10"/><path fill="none" stroke="black" paint-order="fill stroke markers" d=" M 34 47 L 38 47" stroke-linejoin="bevel" stroke-miterlimit="10"/><path fill="none" stroke="black" paint-order="fill stroke markers" d=" M 34 41 L 38 41" stroke-linejoin="bevel" stroke-miterlimit="10"/><path fill="none" stroke="black" paint-order="fill stroke markers" d=" M 34 34 L 38 34" stroke-linejoin="bevel" stroke-miterlimit="10"/><path fill="" stroke="black" paint-order="fill stroke markers" d=" M 34 27 L 38 27" stroke-linejoin="bevel" stroke-miterlimit="10"/><g transform="translate(27,226) rotate(0,0,0)"><text fill="" stroke="none" font-family="helvetica" font-size="8pt" font-style="normal" font-weight="normal" text-decoration="normal" x="0" y="0" text-anchor="end" dominant-baseline="central">0</text><g transform="rotate(0,0,0) translate(-27,-226) translate(27,193) rotate(0,0,0)"><text fill="" stroke="none" font-family="helvetica" font-size="8pt" font-style="normal" font-weight="normal" text-decoration="normal" x="0" y="0" text-anchor="end" dominant-baseline="central">500</text><g transform="rotate(0,0,0) translate(-27,-193) translate(27,160) rotate(0,0,0)"><text fill="" stroke="none" font-family="helvetica" font-size="8pt" font-style="normal" font-weight="normal" text-decoration="normal" x="0" y="0" text-anchor="end" dominant-baseline="central">1000</text><g transform="rotate(0,0,0) translate(-27,-160) translate(27,127) rotate(0,0,0)"><text fill="" stroke="none" font-family="helvetica" font-size="8pt" font-style="normal" font-weight="normal" text-decoration="normal" x="0" y="0" text-anchor="end" dominant-baseline="central">1500</text><g transform="rotate(0,0,0) translate(-27,-127) translate(27,94) rotate(0,0,0)"><text fill="" stroke="none" font-family="helvetica" font-size="8pt" font-style="normal" font-weight="normal" text-decoration="normal" x="0" y="0" text-anchor="end" dominant-baseline="central">2000</text><g transform="rotate(0,0,0) translate(-27,-94) translate(27,60) rotate(0,0,0)"><text fill="" stroke="none" font-family="helvetica" font-size="8pt" font-style="normal" font-weight="normal" text-decoration="normal" x="0" y="0" text-anchor="end" dominant-baseline="central">2500</text><g transform="rotate(0,0,0) translate(-27,-60) translate(27,27) rotate(0,0,0)"><text fill="" stroke="none" font-family="helvetica" font-size="8pt" font-style="normal" font-weight="normal" text-decoration="normal" x="0" y="0" text-anchor="end" dominant-baseline="central">3000</text><g transform="rotate(0,0,0) translate(-27,-27)"/></g></g></g></g></g></g></g></g><g fill="#444444"><path fill="" stroke="none" d=""/><g transform="translate(38,22)"><path fill="none" stroke="none"/><text fill="" stroke="none" font-family="helvetica" font-size="10pt" font-style="normal" font-weight="bold" text-decoration="normal" x="0" y="0" text-anchor="start" dominant-baseline="text-after-edge">Average User Rating</text></g></g></g></g></g></svg>